<svg width="160" height="30" viewBox="0 0 160 30" fill="none" xmlns="http://www.w3.org/2000/svg">
<path d="M37.3241 16.472C35.8645 15 33.8488 14.1589 31.7637 14.1589C30.8601 14.1589 30.0261 14.2991 29.192 14.5794C28.8445 14.3692 28.5665 14.1589 28.2189 14.0187C28.8445 13.6682 29.47 13.2477 29.9566 12.6869C31.3467 11.285 32.1112 9.39252 32.1112 7.42991C32.1112 5.3972 31.3467 3.57477 29.9566 2.1729C28.5665 0.771028 26.6898 0 24.7437 0H5.97741V1.68224H9.24413V7.99065H5.97741V9.6729H9.24413V14.2991C8.82711 14.229 8.34057 14.1589 7.85404 14.1589C5.7689 14.1589 3.75326 15 2.29366 16.472C0.834057 17.9439 0 19.9766 0 22.0794C0 24.1822 0.834057 26.215 2.29366 27.6869C3.75326 29.1589 5.7689 30 7.85404 30H24.6742C25.9253 30 27.1764 29.7196 28.2189 29.1589C29.2615 29.7196 30.5126 30 31.6942 30C33.7793 30 35.795 29.1589 37.2546 27.6869C38.7142 26.215 39.5482 24.1822 39.5482 22.0794C39.5482 19.9766 38.7837 18.014 37.3241 16.472ZM9.24413 28.3878H7.85404C4.44831 28.3878 1.59861 25.5841 1.59861 22.0794C1.59861 18.5748 4.3788 15.771 7.85404 15.771C8.34057 15.771 8.7576 15.8411 9.24413 15.9112V28.3878ZM10.8427 1.61215H17.2372V7.99065H10.8427V1.61215ZM17.3067 28.3878H10.8427V16.6121C11.0513 16.7523 11.3293 16.8925 11.5378 17.0327L17.3067 21.2383V28.3878ZM12.5109 15.7009C12.2328 15.4907 11.9548 15.3505 11.6768 15.2103L10.8427 14.7897V9.6729H17.2372V19.2056L12.5109 15.7009ZM24.6742 28.3878H18.9053V22.5L26.5508 28.1075C25.9948 28.3178 25.3692 28.3878 24.6742 28.3878ZM28.2884 27.3364C28.2189 27.2664 28.1494 27.2664 28.0799 27.1963L18.9748 20.4673V9.6729H22.033V7.99065H18.9053V1.61215H24.6742C27.8714 1.61215 30.4431 4.20561 30.4431 7.42991C30.4431 10.6542 27.8714 13.2477 24.6742 13.2477H22.033V14.9299H24.6742C28.3579 14.9299 31.3467 17.9439 31.3467 21.6589C31.3467 24.0421 30.1651 26.1449 28.2884 27.3364ZM31.7637 28.3878C31.1381 28.3878 30.5821 28.3178 29.9566 28.1075C30.1651 27.9673 30.3736 27.757 30.5821 27.5467C32.1807 25.9346 33.0148 23.8318 33.0148 21.5888C33.0148 19.4159 32.1807 17.3832 30.7211 15.8411C31.0686 15.771 31.4162 15.771 31.6942 15.771C35.0999 15.771 37.9496 18.5748 37.9496 22.0794C37.9496 25.5841 35.1694 28.3878 31.7637 28.3878ZM48.4448 3.15421H52.3371C52.6846 3.15421 52.9626 3.2243 53.2407 3.29439C53.5187 3.36449 53.7967 3.50467 54.0747 3.71495C54.4222 3.99533 54.7003 4.2757 54.8393 4.69626C55.0478 5.04673 55.1173 5.46729 55.1173 5.88785V6.02804C55.1173 6.58878 54.9783 7.07944 54.7003 7.5C54.4222 7.99065 54.0052 8.27103 53.5187 8.48131C54.1442 8.6215 54.7003 8.97196 55.0478 9.46262C55.3953 9.95327 55.6038 10.5841 55.6038 11.1449V11.5654C55.5343 11.986 55.4648 12.4766 55.2563 12.8972C55.0478 13.3178 54.7698 13.6682 54.3527 13.9486C54.0747 14.0888 53.7967 14.229 53.5187 14.2991C53.2407 14.3692 52.8931 14.4393 52.5456 14.4393H48.3753L48.4448 3.15421ZM50.1824 7.92056H51.364C51.8506 7.92056 52.2676 7.78037 52.6151 7.57009C53.0321 7.35981 53.1712 7.00935 53.2407 6.4486V6.30841C53.2407 5.60748 53.0321 5.11682 52.5456 4.97663C52.0591 4.76635 51.5725 4.69626 50.947 4.69626H50.1824V7.92056ZM50.391 12.9673H51.4335C51.9896 12.9673 52.5456 12.8271 53.0321 12.6168C53.5187 12.4065 53.7272 11.9159 53.7272 11.215V11.1449C53.7272 10.4439 53.5187 9.95327 53.0321 9.74299C52.5456 9.53271 52.0591 9.39252 51.503 9.39252H50.2519V13.0374C50.2519 12.9673 50.3215 12.9673 50.391 12.9673ZM57.8975 3.15421H64.1529V4.76635H59.7046V7.57009H64.1529V9.18224H59.7046V12.8271H64.1529V14.5093H57.8975V3.15421ZM73.0495 11.5654H68.6012L67.2806 14.5093H65.3345L70.7559 2.73364L76.1772 14.5093H74.2311L73.0495 11.5654ZM70.6864 6.79907C70.6168 7.00935 70.5473 7.21963 70.4083 7.42991L69.2268 10.0234H72.3545L71.1729 7.42991C71.1034 7.28972 71.0339 7.07944 70.9644 6.93925C70.8949 6.79906 70.8254 6.58878 70.8254 6.3785C70.8254 6.30841 70.8254 6.30841 70.7559 6.23832C70.7559 6.16822 70.7559 6.16822 70.6864 6.09813C70.8254 6.3785 70.7559 6.58879 70.6864 6.79907ZM79.861 3.15421V10.0935C79.861 11.0047 80.0695 11.7757 80.4865 12.3364C80.9036 12.8972 81.6681 13.1776 82.6412 13.1776C83.6142 13.1776 84.3093 12.8972 84.7958 12.3364C85.2824 11.7757 85.4909 11.0047 85.4909 10.0935V3.2243H87.298V10.3037C87.298 11.8458 86.881 12.9673 86.1164 13.7383C85.3519 14.5093 84.1703 14.8598 82.6412 14.8598C81.1121 14.8598 79.9305 14.5093 79.1659 13.7383C78.4014 12.9673 77.9844 11.8458 77.9844 10.3738V3.2243L79.861 3.15421ZM93.8314 14.5093H91.9548V4.76635H88.9661V3.15421H96.7507V4.76635H93.7619V14.5093H93.8314ZM100.921 9.32243L97.1677 3.15421H99.1138L101.477 7.00935C101.546 7.07944 101.546 7.14953 101.616 7.21962C101.685 7.28972 101.685 7.35981 101.755 7.42991C101.755 7.42991 101.755 7.5 101.824 7.5C101.824 7.5 101.825 7.57009 101.894 7.57009C101.894 7.64019 101.964 7.64019 101.964 7.71028C101.964 7.78037 102.033 7.78037 102.033 7.85047C102.103 7.71028 102.172 7.5 102.242 7.35981C102.311 7.21963 102.381 7.07944 102.52 6.86916L104.952 3.08411H106.759L102.937 9.25233V14.4393H101.129L100.921 9.32243ZM113.571 14.5093V2.80374H119.34V3.78505H114.683V7.42991H119.201V8.41121H114.683V14.4393L113.571 14.5093ZM126.499 14.7897C125.387 14.7897 124.414 14.5794 123.44 14.0888C122.467 13.5981 121.703 12.8972 121.147 11.986C120.591 11.0748 120.313 9.95327 120.313 8.62149C120.313 7.42991 120.591 6.30841 121.216 5.3972C121.842 4.48598 122.606 3.78505 123.579 3.29439C124.553 2.80374 125.595 2.52336 126.638 2.52336C127.541 2.52336 128.375 2.66355 129.14 3.01402C129.904 3.36449 130.53 3.78505 131.086 4.34579C131.642 4.90654 132.059 5.53738 132.337 6.30841C132.615 7.07944 132.824 7.92056 132.824 8.76168C132.824 9.95327 132.546 11.0748 131.99 11.986C131.434 12.8972 130.669 13.6682 129.696 14.1589C128.723 14.5794 127.68 14.7897 126.499 14.7897ZM126.499 13.8785C127.472 13.8785 128.306 13.6682 129.07 13.1776C129.835 12.757 130.46 12.1262 130.947 11.285C131.434 10.514 131.642 9.6028 131.642 8.62149C131.642 7.78037 131.434 6.93925 131.086 6.16822C130.669 5.3271 130.113 4.69626 129.348 4.13551C128.584 3.57477 127.68 3.36449 126.568 3.36449C125.804 3.36449 125.039 3.57477 124.205 3.92523C123.371 4.34579 122.745 4.90654 122.189 5.67757C121.633 6.4486 121.425 7.42991 121.425 8.5514C121.425 9.46262 121.633 10.3738 122.05 11.1449C122.467 11.9159 123.093 12.5467 123.858 13.0374C124.692 13.6682 125.526 13.8785 126.499 13.8785ZM141.651 14.5093H140.33L136.229 8.90187H135.604V14.5093H134.561V2.80374H136.716C139.218 2.80374 140.469 3.85514 140.469 6.02804C140.469 7.07944 140.191 7.78037 139.566 8.27103C138.94 8.69159 138.245 8.97196 137.48 9.04206L141.651 14.5093ZM136.438 8.06075C137.341 8.06075 138.036 7.92056 138.523 7.64019C139.01 7.35981 139.288 6.79906 139.288 5.88785C139.288 5.04673 139.079 4.48598 138.593 4.13551C138.106 3.78505 137.411 3.64486 136.368 3.64486H135.534V7.99065L136.438 8.06075ZM148.81 3.50467C147.767 3.50467 146.933 3.71495 146.169 4.13551C145.404 4.55607 144.848 5.18692 144.431 5.95794C144.014 6.72897 143.805 7.64019 143.805 8.69159C143.805 10.3037 144.292 11.5654 145.195 12.4766C146.099 13.3878 147.281 13.8785 148.74 13.8785C150.061 13.8785 151.312 13.3878 152.493 12.4766V13.7383C151.937 14.0888 151.381 14.2991 150.756 14.5093C150.13 14.7196 149.435 14.7897 148.74 14.7897C147.837 14.7897 146.864 14.6495 145.96 14.2991C145.056 13.9486 144.292 13.3178 143.597 12.4065C142.971 11.4953 142.624 10.3037 142.624 8.76168C142.624 7.64019 142.832 6.58878 143.249 5.67757C143.666 4.76636 144.361 3.99533 145.265 3.43458C146.169 2.87383 147.35 2.59346 148.81 2.59346C150.13 2.59346 151.381 3.01402 152.563 3.85514L152.493 5.04673C152.076 4.69626 151.52 4.34579 150.964 3.99533C150.408 3.64486 149.713 3.50467 148.81 3.50467ZM154.231 14.5093V2.80374H160V3.78505H155.343V7.42991H160V8.41121H155.343V13.4579H160V14.4393L154.231 14.5093ZM53.7272 23.0607V23.5514C53.4492 23.271 53.1712 22.9907 52.8236 22.8505C52.4761 22.7103 52.1286 22.5701 51.7116 22.5701C50.947 22.5701 50.3215 22.8505 49.8349 23.3411C49.3484 23.9019 49.0704 24.5327 49.0704 25.3037C49.0704 25.7243 49.1399 26.1449 49.3484 26.4953C49.4874 26.8458 49.6959 27.1262 49.9739 27.3364C50.252 27.5467 50.53 27.757 50.808 27.8271C51.086 27.9673 51.4335 28.0374 51.7116 28.0374C52.0591 28.0374 52.4066 27.9673 52.7541 27.8271C53.1016 27.6869 53.4492 27.4766 53.7272 27.1262V27.6168C53.2407 28.1776 52.5456 28.3878 51.8506 28.3878C50.947 28.3878 50.252 28.1075 49.6264 27.4766C49.0009 26.8458 48.7228 26.1449 48.7228 25.3037C48.7228 24.4626 49.0009 23.6916 49.6264 23.1308C50.252 22.5701 50.947 22.2196 51.7811 22.2196C52.5456 22.2897 53.1712 22.5 53.7272 23.0607ZM57.3414 23.1308C57.967 22.5 58.662 22.2196 59.5656 22.2196C60.3996 22.2196 61.1642 22.5 61.7897 23.1308C62.4153 23.7617 62.6933 24.4626 62.6933 25.3037C62.6933 26.1449 62.4153 26.9159 61.7897 27.4766C61.1642 28.1075 60.4692 28.3878 59.5656 28.3878C58.7315 28.3878 57.967 28.1075 57.3414 27.4766C56.7159 26.9159 56.4379 26.1449 56.4379 25.3037C56.4379 24.4626 56.7854 23.7617 57.3414 23.1308ZM57.6195 27.2664C58.106 27.757 58.7315 28.0374 59.4961 28.0374C60.2606 28.0374 60.8862 27.757 61.3727 27.2664C61.8592 26.7056 62.1373 26.0748 62.1373 25.3037C62.1373 24.5327 61.8592 23.9019 61.3727 23.3411C60.8862 22.8505 60.2606 22.5701 59.4961 22.5701C58.7315 22.5701 58.106 22.8505 57.6195 23.3411C57.1329 23.9019 56.8549 24.5327 56.8549 25.3037C56.8549 26.1449 57.1329 26.7757 57.6195 27.2664ZM68.6707 23.1308L68.3927 23.3411C68.1147 22.8505 67.7672 22.5701 67.2111 22.5701C66.8636 22.5701 66.5856 22.7103 66.3771 22.9206C66.1685 23.1308 66.099 23.4112 66.099 23.6916C66.099 23.8318 66.099 23.972 66.1685 24.1121C66.238 24.2523 66.3076 24.3224 66.3771 24.3925C66.5161 24.4626 66.5856 24.5327 66.6551 24.6028C66.7246 24.6729 66.8636 24.743 67.0721 24.8131C67.6976 25.0935 68.1147 25.3037 68.2537 25.4439C68.6707 25.7243 68.8792 26.1449 68.8792 26.6355C68.8792 27.1262 68.6707 27.5467 68.3232 27.8972C67.9757 28.2477 67.5586 28.3878 67.0026 28.3878C66.4466 28.3878 65.96 28.1776 65.6125 27.757L65.1955 27.1262L65.543 26.986C65.6125 27.1963 65.7515 27.4065 65.8905 27.5467C66.1685 27.8972 66.5161 28.0374 67.0026 28.0374C67.4196 28.0374 67.7672 27.8972 68.0452 27.6168C68.3232 27.3364 68.4622 27.0561 68.4622 26.6355C68.4622 26.215 68.2537 25.9346 67.9062 25.7243C67.7672 25.6542 67.4196 25.4439 66.7941 25.1636C66.5161 25.0234 66.3075 24.8832 66.1685 24.8131C66.0295 24.743 65.8905 24.6028 65.821 24.3925C65.682 24.1822 65.6125 23.972 65.6125 23.6916C65.6125 23.271 65.7515 22.9907 66.0295 22.6402C66.3076 22.2897 66.6551 22.2196 67.1416 22.2196C67.4196 22.2196 67.6976 22.2897 67.9757 22.4299C68.3232 22.6402 68.5317 22.8505 68.6707 23.1308ZM72.285 28.3178H71.8679L72.563 22.1495L75.1347 27.6869L77.7063 22.1495L78.4014 28.3178H78.0539L77.4978 23.5514L75.1347 28.528L72.7715 23.5514L72.285 28.3178ZM84.5873 22.3598V22.7103H82.1546V24.8832H84.5873V25.2336H82.1546V27.9673H84.5873V28.3178H81.7376V22.3598H84.5873ZM90.4257 22.7103H88.8966V28.3178H88.4796V22.7103H86.9505V22.3598H90.4257V22.7103ZM93.0669 22.3598H93.4839V28.3178H93.0669V22.3598ZM101.616 23.0607V23.5514C101.338 23.271 101.06 22.9907 100.712 22.8505C100.365 22.7103 100.017 22.5701 99.6003 22.5701C98.8358 22.5701 98.2103 22.8505 97.7237 23.3411C97.2372 23.9019 96.9592 24.5327 96.9592 25.3037C96.9592 25.7243 97.0287 26.1449 97.2372 26.4953C97.3762 26.8458 97.5847 27.1262 97.8627 27.3364C98.1407 27.5467 98.4188 27.757 98.6968 27.8271C98.9748 27.9673 99.3223 28.0374 99.6003 28.0374C99.9479 28.0374 100.295 27.9673 100.643 27.8271C100.99 27.6869 101.338 27.4766 101.616 27.1262V27.6168C101.06 28.1075 100.365 28.3878 99.6699 28.3878C98.7663 28.3878 98.0712 28.1075 97.4457 27.4766C96.8202 26.8458 96.5421 26.1449 96.5421 25.3037C96.5421 24.4626 96.8202 23.6916 97.4457 23.1308C98.0712 22.5 98.7663 22.2196 99.6003 22.2196C100.365 22.2897 101.06 22.5 101.616 23.0607ZM113.223 23.0607V23.5514C112.945 23.271 112.667 22.9907 112.32 22.8505C111.972 22.7103 111.625 22.5701 111.208 22.5701C110.443 22.5701 109.818 22.8505 109.331 23.3411C108.844 23.9019 108.566 24.5327 108.566 25.3037C108.566 25.7243 108.636 26.1449 108.844 26.4953C108.983 26.8458 109.192 27.1262 109.47 27.3364C109.748 27.5467 110.026 27.757 110.304 27.8271C110.582 27.9673 110.93 28.0374 111.208 28.0374C111.555 28.0374 111.903 27.9673 112.25 27.8271C112.598 27.6869 112.945 27.4766 113.223 27.1262V27.6168C112.667 28.1075 111.972 28.3878 111.277 28.3878C110.374 28.3878 109.679 28.1075 109.053 27.4766C108.427 26.8458 108.149 26.1449 108.149 25.3037C108.149 24.4626 108.427 23.6916 109.053 23.1308C109.679 22.5 110.374 22.2196 111.208 22.2196C112.042 22.2897 112.667 22.5 113.223 23.0607ZM116.838 23.1308C117.463 22.5 118.158 22.2196 119.062 22.2196C119.896 22.2196 120.66 22.5 121.286 23.1308C121.911 23.7617 122.189 24.4626 122.189 25.3037C122.189 26.1449 121.911 26.9159 121.286 27.4766C120.66 28.1075 119.965 28.3878 119.062 28.3878C118.228 28.3878 117.463 28.1075 116.838 27.4766C116.212 26.9159 115.934 26.1449 115.934 25.3037C115.934 24.4626 116.281 23.7617 116.838 23.1308ZM117.116 27.2664C117.602 27.757 118.228 28.0374 118.992 28.0374C119.757 28.0374 120.382 27.757 120.869 27.2664C121.355 26.7056 121.633 26.0748 121.633 25.3037C121.633 24.5327 121.355 23.9019 120.869 23.3411C120.382 22.8505 119.757 22.5701 118.992 22.5701C118.228 22.5701 117.602 22.8505 117.116 23.3411C116.629 23.9019 116.351 24.5327 116.351 25.3037C116.351 26.1449 116.629 26.7757 117.116 27.2664ZM125.456 28.3178H125.039L125.734 22.1495L128.306 27.6869L130.877 22.1495L131.573 28.3178H131.156L130.599 23.5514L128.306 28.528L125.943 23.5514L125.456 28.3178ZM136.021 25.514H135.256V28.3178H134.839V22.3598H136.021C136.507 22.3598 136.924 22.5 137.272 22.7804C137.619 23.0607 137.758 23.4112 137.758 23.9019C137.758 24.3925 137.619 24.8131 137.272 25.0935C136.924 25.3738 136.507 25.514 136.021 25.514ZM135.256 22.7103V25.1636H136.021C136.438 25.1636 136.716 25.0234 136.994 24.8131C137.202 24.6028 137.341 24.3224 137.341 23.9019C137.341 23.5514 137.202 23.2009 136.994 22.9907C136.785 22.7804 136.438 22.6402 136.021 22.6402L135.256 22.7103ZM144.431 28.3178L143.666 26.3551H141.164L140.4 28.3178H139.983L142.485 22.1495L144.917 28.3178H144.431ZM141.303 26.0047H143.527L142.415 23.2009L141.303 26.0047ZM147.976 28.3178H147.559V22.2897L152.563 27.5467V22.3598H152.98V28.4579L148.045 23.2009L147.976 28.3178ZM157.567 28.3178V25.7243L155.621 22.2897H156.038L157.776 25.3037L159.513 22.2897H159.93L157.915 25.7243V28.3178H157.567Z" fill="white"/>
</svg>
