<svg width="44" height="24" viewBox="0 0 44 24" fill="none" xmlns="http://www.w3.org/2000/svg">
<rect width="44" height="24" fill="#E0F1F3"/>
<path d="M8.38 15.13C7.85333 15.13 7.39 15.04 6.99 14.86C6.59 14.68 6.27667 14.4233 6.05 14.09C5.83 13.7567 5.71333 13.3667 5.7 12.92H6.3C6.32667 13.4333 6.52667 13.8333 6.9 14.12C7.27333 14.4067 7.76667 14.55 8.38 14.55C8.95333 14.55 9.40667 14.4333 9.74 14.2C10.0733 13.96 10.24 13.6367 10.24 13.23C10.24 12.8633 10.0833 12.5667 9.77 12.34C9.46333 12.1067 8.96 11.9133 8.26 11.76C7.39333 11.56 6.76667 11.3033 6.38 10.99C6 10.67 5.81 10.25 5.81 9.73C5.81 9.16333 6.02333 8.71333 6.45 8.38C6.88333 8.04 7.47 7.87 8.21 7.87C8.98333 7.87 9.59 8.05667 10.03 8.43C10.4767 8.80333 10.7133 9.32667 10.74 10H10.14C10.1133 9.50667 9.93 9.12667 9.59 8.86C9.25667 8.58667 8.79667 8.45 8.21 8.45C7.65 8.45 7.21 8.56667 6.89 8.8C6.57667 9.03333 6.42 9.34333 6.42 9.73C6.42 10.0833 6.57 10.3767 6.87 10.61C7.17667 10.8367 7.69 11.03 8.41 11.19C9.28333 11.39 9.91 11.6533 10.29 11.98C10.67 12.3 10.86 12.7133 10.86 13.22C10.86 13.8067 10.6367 14.2733 10.19 14.62C9.74333 14.96 9.14 15.13 8.38 15.13ZM13.9423 8.58H11.5323V8H16.9623V8.58H14.5423V15H13.9423V8.58ZM21.0859 15.13C20.3859 15.13 19.7626 14.9767 19.2159 14.67C18.6693 14.3633 18.2426 13.9367 17.9359 13.39C17.6293 12.8367 17.4759 12.2067 17.4759 11.5C17.4759 10.7933 17.6293 10.1667 17.9359 9.62C18.2426 9.06667 18.6693 8.63667 19.2159 8.33C19.7626 8.02333 20.3859 7.87 21.0859 7.87C21.7926 7.87 22.4193 8.02333 22.9659 8.33C23.5126 8.63667 23.9359 9.06667 24.2359 9.62C24.5426 10.1667 24.6959 10.7933 24.6959 11.5C24.6959 12.2067 24.5426 12.8367 24.2359 13.39C23.9359 13.9367 23.5126 14.3633 22.9659 14.67C22.4193 14.9767 21.7926 15.13 21.0859 15.13ZM18.0959 11.5C18.0959 12.0867 18.2226 12.61 18.4759 13.07C18.7293 13.53 19.0793 13.8867 19.5259 14.14C19.9793 14.3933 20.4993 14.52 21.0859 14.52C21.6726 14.52 22.1926 14.3933 22.6459 14.14C23.0993 13.8867 23.4526 13.5333 23.7059 13.08C23.9593 12.62 24.0859 12.0933 24.0859 11.5C24.0859 10.9067 23.9593 10.3833 23.7059 9.93C23.4526 9.47 23.0993 9.11333 22.6459 8.86C22.1926 8.60667 21.6726 8.48 21.0859 8.48C20.4993 8.48 19.9793 8.60667 19.5259 8.86C19.0793 9.11333 18.7293 9.47 18.4759 9.93C18.2226 10.3833 18.0959 10.9067 18.0959 11.5ZM26.462 8H29.052C29.5187 8 29.9254 8.09 30.272 8.27C30.6254 8.45 30.8987 8.70333 31.092 9.03C31.2854 9.35667 31.382 9.74 31.382 10.18C31.382 10.7533 31.222 11.23 30.902 11.61C30.582 11.99 30.1454 12.2267 29.592 12.32L31.492 15H30.762L28.882 12.37H27.072V15H26.462V8ZM28.992 11.79C29.5454 11.79 29.9787 11.6467 30.292 11.36C30.6054 11.0733 30.762 10.68 30.762 10.18C30.762 9.68667 30.6054 9.29667 30.292 9.01C29.9787 8.72333 29.5454 8.58 28.992 8.58H27.072V11.79H28.992ZM33.298 8H37.418V8.57H33.908V11.15H37.158V11.71H33.908V14.43H37.528V15H33.298V8Z" fill="#131314"/>
<path d="M6.99 14.86L7.07207 14.6776H7.07207L6.99 14.86ZM6.05 14.09L5.88306 14.2002L5.88461 14.2025L6.05 14.09ZM5.7 12.92V12.72H5.49394L5.50009 12.926L5.7 12.92ZM6.3 12.92L6.49973 12.9096L6.48988 12.72H6.3V12.92ZM6.9 14.12L7.02181 13.9614L6.9 14.12ZM9.74 14.2L9.8547 14.3639L9.85686 14.3623L9.74 14.2ZM9.77 12.34L9.64886 12.4992L9.65278 12.502L9.77 12.34ZM8.26 11.76L8.21503 11.9549L8.21721 11.9554L8.26 11.76ZM6.38 10.99L6.25115 11.143L6.25408 11.1454L6.38 10.99ZM6.45 8.38L6.57313 8.5376L6.57346 8.53735L6.45 8.38ZM10.03 8.43L9.9006 8.58251L9.90174 8.58346L10.03 8.43ZM10.74 10V10.2H10.9481L10.9398 9.99209L10.74 10ZM10.14 10L9.94029 10.0108L9.95052 10.2H10.14V10ZM9.59 8.86L9.46315 9.01469L9.46657 9.01737L9.59 8.86ZM6.89 8.8L6.77216 8.63839L6.77055 8.63959L6.89 8.8ZM6.87 10.61L6.74717 10.7679L6.75112 10.7708L6.87 10.61ZM8.41 11.19L8.45465 10.995L8.45339 10.9948L8.41 11.19ZM10.29 11.98L10.1596 12.1317L10.1612 12.133L10.29 11.98ZM10.19 14.62L10.3111 14.7791L10.3126 14.778L10.19 14.62ZM8.38 14.93C7.87605 14.93 7.44162 14.8439 7.07207 14.6776L6.90793 15.0424C7.33838 15.2361 7.83062 15.33 8.38 15.33V14.93ZM7.07207 14.6776C6.70269 14.5114 6.41945 14.2776 6.21539 13.9775L5.88461 14.2025C6.13388 14.569 6.47731 14.8486 6.90793 15.0424L7.07207 14.6776ZM6.21692 13.9798C6.01974 13.6811 5.91227 13.3281 5.89991 12.914L5.50009 12.926C5.5144 13.4052 5.64026 13.8323 5.88308 14.2002L6.21692 13.9798ZM5.7 13.12H6.3V12.72H5.7V13.12ZM6.10027 12.9304C6.12966 13.4961 6.35383 13.9528 6.77819 14.2786L7.02181 13.9614C6.69951 13.7139 6.52368 13.3706 6.49973 12.9096L6.10027 12.9304ZM6.77819 14.2786C7.19578 14.5993 7.73602 14.75 8.38 14.75V14.35C7.79732 14.35 7.35088 14.2141 7.02181 13.9614L6.77819 14.2786ZM8.38 14.75C8.97816 14.75 9.47654 14.6286 9.85469 14.3638L9.62531 14.0362C9.3368 14.2381 8.92851 14.35 8.38 14.35V14.75ZM9.85686 14.3623C10.2418 14.0852 10.44 13.7018 10.44 13.23H10.04C10.04 13.5716 9.90489 13.8348 9.62314 14.0377L9.85686 14.3623ZM10.44 13.23C10.44 12.7951 10.2492 12.4398 9.88722 12.178L9.65278 12.502C9.91746 12.6935 10.04 12.9315 10.04 13.23H10.44ZM9.8911 12.1808C9.54904 11.9206 9.01089 11.7197 8.30279 11.5646L8.21721 11.9554C8.90911 12.1069 9.37762 12.2928 9.6489 12.4992L9.8911 12.1808ZM8.30497 11.5651C7.44812 11.3674 6.85706 11.1192 6.50592 10.8346L6.25408 11.1454C6.67627 11.4875 7.33855 11.7526 8.21503 11.9549L8.30497 11.5651ZM6.50883 10.837C6.17632 10.557 6.01 10.1942 6.01 9.73H5.61C5.61 10.3058 5.82368 10.783 6.25117 11.143L6.50883 10.837ZM6.01 9.73C6.01 9.22157 6.19754 8.83103 6.57313 8.5376L6.32687 8.22239C5.84912 8.59564 5.61 9.1051 5.61 9.73H6.01ZM6.57346 8.53735C6.96117 8.23314 7.49945 8.07 8.21 8.07V7.67C7.44055 7.67 6.8055 7.84686 6.32654 8.22265L6.57346 8.53735ZM8.21 8.07C8.95217 8.07 9.50745 8.24891 9.9006 8.5825L10.1594 8.2775C9.67255 7.86442 9.0145 7.67 8.21 7.67V8.07ZM9.90174 8.58346C10.2981 8.91473 10.5153 9.38125 10.5402 10.0079L10.9398 9.99209C10.9113 9.27209 10.6553 8.69194 10.1583 8.27654L9.90174 8.58346ZM10.74 9.8H10.14V10.2H10.74V9.8ZM10.3397 9.9892C10.3104 9.44747 10.1055 9.01017 9.71343 8.70263L9.46657 9.01737C9.75445 9.24316 9.91624 9.56587 9.94029 10.0108L10.3397 9.9892ZM9.71682 8.70535C9.33668 8.39364 8.82627 8.25 8.21 8.25V8.65C8.76706 8.65 9.17665 8.7797 9.46318 9.01465L9.71682 8.70535ZM8.21 8.25C7.62464 8.25 7.13795 8.37168 6.77217 8.6384L7.00783 8.9616C7.28205 8.76165 7.67536 8.65 8.21 8.65V8.25ZM6.77055 8.63959C6.40715 8.9102 6.22 9.27937 6.22 9.73H6.62C6.62 9.40729 6.74618 9.15646 7.00945 8.96041L6.77055 8.63959ZM6.22 9.73C6.22 10.1502 6.40275 10.5 6.74721 10.7679L6.99279 10.4521C6.73725 10.2534 6.62 10.0164 6.62 9.73H6.22ZM6.75112 10.7708C7.09269 11.0233 7.64009 11.2238 8.36661 11.3852L8.45339 10.9948C7.73991 10.8362 7.26065 10.65 6.98888 10.4492L6.75112 10.7708ZM8.36535 11.385C9.22833 11.5826 9.81674 11.8369 10.1596 12.1317L10.4204 11.8283C10.0033 11.4698 9.33834 11.1974 8.45465 10.995L8.36535 11.385ZM10.1612 12.133C10.495 12.4141 10.66 12.771 10.66 13.22H11.06C11.06 12.6557 10.845 12.1859 10.4188 11.827L10.1612 12.133ZM10.66 13.22C10.66 13.7476 10.4631 14.1549 10.0674 14.462L10.3126 14.778C10.8102 14.3918 11.06 13.8657 11.06 13.22H10.66ZM10.0689 14.4609C9.66751 14.7664 9.11156 14.93 8.38 14.93V15.33C9.16844 15.33 9.81916 15.1536 10.3111 14.7791L10.0689 14.4609ZM13.9423 8.58H14.1423V8.38H13.9423V8.58ZM11.5323 8.58H11.3323V8.78H11.5323V8.58ZM11.5323 8V7.8H11.3323V8H11.5323ZM16.9623 8H17.1623V7.8H16.9623V8ZM16.9623 8.58V8.78H17.1623V8.58H16.9623ZM14.5423 8.58V8.38H14.3423V8.58H14.5423ZM14.5423 15V15.2H14.7423V15H14.5423ZM13.9423 15H13.7423V15.2H13.9423V15ZM13.9423 8.38H11.5323V8.78H13.9423V8.38ZM11.7323 8.58V8H11.3323V8.58H11.7323ZM11.5323 8.2H16.9623V7.8H11.5323V8.2ZM16.7623 8V8.58H17.1623V8H16.7623ZM16.9623 8.38H14.5423V8.78H16.9623V8.38ZM14.3423 8.58V15H14.7423V8.58H14.3423ZM14.5423 14.8H13.9423V15.2H14.5423V14.8ZM14.1423 15V8.58H13.7423V15H14.1423ZM19.2159 14.67L19.1181 14.8444L19.2159 14.67ZM17.9359 13.39L17.761 13.487L17.7615 13.4879L17.9359 13.39ZM17.9359 9.62L18.1104 9.71785L18.1109 9.71695L17.9359 9.62ZM19.2159 8.33L19.1181 8.15557L19.2159 8.33ZM24.2359 9.62L24.0601 9.71533L24.0615 9.71785L24.2359 9.62ZM24.2359 13.39L24.061 13.293L24.0606 13.2938L24.2359 13.39ZM22.9659 14.67L23.0638 14.8444L22.9659 14.67ZM18.4759 13.07L18.3007 13.1665L18.4759 13.07ZM19.5259 14.14L19.4273 14.314L19.4284 14.3146L19.5259 14.14ZM23.7059 13.08L23.8805 13.1776L23.8811 13.1765L23.7059 13.08ZM23.7059 9.93L23.5307 10.0265L23.5313 10.0276L23.7059 9.93ZM19.5259 8.86L19.4284 8.68541L19.4273 8.68603L19.5259 8.86ZM18.4759 9.93L18.6505 10.0276L18.6511 10.0265L18.4759 9.93ZM21.0859 14.93C20.4161 14.93 19.8272 14.7836 19.3138 14.4956L19.1181 14.8444C19.698 15.1698 20.3558 15.33 21.0859 15.33V14.93ZM19.3138 14.4956C18.7992 14.2069 18.399 13.8067 18.1104 13.2921L17.7615 13.4879C18.0862 14.0666 18.5393 14.5198 19.1181 14.8444L19.3138 14.4956ZM18.1109 13.293C17.8225 12.7727 17.6759 12.1768 17.6759 11.5H17.2759C17.2759 12.2365 17.436 12.9006 17.761 13.4869L18.1109 13.293ZM17.6759 11.5C17.6759 10.8232 17.8225 10.231 18.1104 9.71785L17.7615 9.52215C17.436 10.1024 17.2759 10.7635 17.2759 11.5H17.6759ZM18.1109 9.71695C18.3997 9.19578 18.7998 8.79275 19.3138 8.50443L19.1181 8.15557C18.5387 8.48058 18.0855 8.93755 17.761 9.52305L18.1109 9.71695ZM19.3138 8.50443C19.8272 8.21642 20.4161 8.07 21.0859 8.07V7.67C20.3558 7.67 19.698 7.83025 19.1181 8.15557L19.3138 8.50443ZM21.0859 8.07C21.7628 8.07 22.355 8.21657 22.8681 8.50443L23.0638 8.15557C22.4836 7.83009 21.8224 7.67 21.0859 7.67V8.07ZM22.8681 8.50443C23.3817 8.79254 23.778 9.19504 24.0601 9.71532L24.4118 9.52467C24.0938 8.93829 23.6435 8.4808 23.0638 8.15557L22.8681 8.50443ZM24.0615 9.71785C24.3494 10.231 24.4959 10.8232 24.4959 11.5H24.8959C24.8959 10.7635 24.7358 10.1024 24.4104 9.52215L24.0615 9.71785ZM24.4959 11.5C24.4959 12.1768 24.3494 12.7727 24.061 13.293L24.4109 13.4869C24.7358 12.9006 24.8959 12.2365 24.8959 11.5H24.4959ZM24.0606 13.2938C23.7787 13.8075 23.3823 14.2071 22.8681 14.4956L23.0638 14.8444C23.6429 14.5196 24.0932 14.0659 24.4113 13.4862L24.0606 13.2938ZM22.8681 14.4956C22.355 14.7834 21.7628 14.93 21.0859 14.93V15.33C21.8224 15.33 22.4836 15.1699 23.0638 14.8444L22.8681 14.4956ZM17.8959 11.5C17.8959 12.1164 18.0293 12.6736 18.3007 13.1665L18.6511 12.9735C18.4159 12.5464 18.2959 12.057 18.2959 11.5H17.8959ZM18.3007 13.1665C18.5715 13.6581 18.9477 14.0419 19.4273 14.314L19.6246 13.966C19.2109 13.7314 18.887 13.4019 18.6511 12.9735L18.3007 13.1665ZM19.4284 14.3146C19.9152 14.5867 20.4696 14.72 21.0859 14.72V14.32C20.5289 14.32 20.0433 14.2 19.6235 13.9654L19.4284 14.3146ZM21.0859 14.72C21.7023 14.72 22.2567 14.5867 22.7435 14.3146L22.5484 13.9654C22.1286 14.2 21.643 14.32 21.0859 14.32V14.72ZM22.7435 14.3146C23.2291 14.0432 23.6091 13.6632 23.8805 13.1776L23.5313 12.9824C23.2961 13.4035 22.9694 13.7301 22.5484 13.9654L22.7435 14.3146ZM23.8811 13.1765C24.1528 12.6833 24.2859 12.1226 24.2859 11.5H23.8859C23.8859 12.064 23.7658 12.5567 23.5307 12.9835L23.8811 13.1765ZM24.2859 11.5C24.2859 10.8774 24.1528 10.3196 23.8805 9.83244L23.5313 10.0276C23.7658 10.4471 23.8859 10.9359 23.8859 11.5H24.2859ZM23.8811 9.83352C23.61 9.34112 23.2299 8.95722 22.7435 8.68541L22.5484 9.03459C22.9686 9.26945 23.2953 9.59888 23.5307 10.0265L23.8811 9.83352ZM22.7435 8.68541C22.2567 8.41335 21.7023 8.28 21.0859 8.28V8.68C21.643 8.68 22.1286 8.79999 22.5484 9.03459L22.7435 8.68541ZM21.0859 8.28C20.4696 8.28 19.9152 8.41335 19.4284 8.68541L19.6235 9.03459C20.0433 8.79999 20.5289 8.68 21.0859 8.68V8.28ZM19.4273 8.68603C18.9477 8.95805 18.5715 9.34188 18.3007 9.83352L18.6511 10.0265C18.887 9.59812 19.2109 9.26862 19.6246 9.03397L19.4273 8.68603ZM18.3013 9.83244C18.0291 10.3196 17.8959 10.8774 17.8959 11.5H18.2959C18.2959 10.9359 18.4161 10.4471 18.6505 10.0276L18.3013 9.83244ZM26.462 8V7.8H26.262V8H26.462ZM30.272 8.27L30.1799 8.4475L30.1812 8.44821L30.272 8.27ZM31.092 9.03L30.9199 9.13186L31.092 9.03ZM30.902 11.61L31.055 11.7388V11.7388L30.902 11.61ZM29.592 12.32L29.5588 12.1228L29.2446 12.1758L29.4289 12.4357L29.592 12.32ZM31.492 15V15.2H31.879L31.6552 14.8843L31.492 15ZM30.762 15L30.5993 15.1163L30.6592 15.2H30.762V15ZM28.882 12.37L29.0447 12.2537L28.9849 12.17H28.882V12.37ZM27.072 12.37V12.17H26.872V12.37H27.072ZM27.072 15V15.2H27.272V15H27.072ZM26.462 15H26.262V15.2H26.462V15ZM30.292 11.36L30.157 11.2124L30.292 11.36ZM30.292 9.01L30.157 9.15756L30.292 9.01ZM27.072 8.58V8.38H26.872V8.58H27.072ZM27.072 11.79H26.872V11.99H27.072V11.79ZM26.462 8.2H29.052V7.8H26.462V8.2ZM29.052 8.2C29.4928 8.2 29.8667 8.2849 30.1799 8.4475L30.3642 8.0925C29.984 7.8951 29.5446 7.8 29.052 7.8V8.2ZM30.1812 8.44821C30.5024 8.6118 30.7468 8.83934 30.9199 9.13186L31.2641 8.92814C31.0506 8.56732 30.7484 8.2882 30.3628 8.09179L30.1812 8.44821ZM30.9199 9.13186C31.0923 9.42306 31.182 9.77006 31.182 10.18H31.582C31.582 9.70994 31.4785 9.29027 31.2641 8.92814L30.9199 9.13186ZM31.182 10.18C31.182 10.7139 31.0341 11.1427 30.7491 11.4812L31.055 11.7388C31.41 11.3173 31.582 10.7928 31.582 10.18H31.182ZM30.7491 11.4812C30.4636 11.8202 30.0718 12.0363 29.5588 12.1228L29.6253 12.5172C30.2189 12.4171 30.7005 12.1598 31.055 11.7388L30.7491 11.4812ZM29.4289 12.4357L31.3289 15.1157L31.6552 14.8843L29.7552 12.2043L29.4289 12.4357ZM31.492 14.8H30.762V15.2H31.492V14.8ZM30.9247 14.8837L29.0447 12.2537L28.7193 12.4863L30.5993 15.1163L30.9247 14.8837ZM28.882 12.17H27.072V12.57H28.882V12.17ZM26.872 12.37V15H27.272V12.37H26.872ZM27.072 14.8H26.462V15.2H27.072V14.8ZM26.662 15V8H26.262V15H26.662ZM28.992 11.99C29.5798 11.99 30.0668 11.8372 30.427 11.5076L30.157 11.2124C29.8906 11.4562 29.511 11.59 28.992 11.59V11.99ZM30.427 11.5076C30.7892 11.1762 30.962 10.7253 30.962 10.18H30.562C30.562 10.6347 30.4216 10.9704 30.157 11.2124L30.427 11.5076ZM30.962 10.18C30.962 9.64049 30.7886 9.19323 30.427 8.86244L30.157 9.15756C30.4221 9.40011 30.562 9.73284 30.562 10.18H30.962ZM30.427 8.86244C30.0668 8.53283 29.5798 8.38 28.992 8.38V8.78C29.511 8.78 29.8906 8.91383 30.157 9.15756L30.427 8.86244ZM28.992 8.38H27.072V8.78H28.992V8.38ZM26.872 8.58V11.79H27.272V8.58H26.872ZM27.072 11.99H28.992V11.59H27.072V11.99ZM33.298 8V7.8H33.098V8H33.298ZM37.418 8H37.618V7.8H37.418V8ZM37.418 8.57V8.77H37.618V8.57H37.418ZM33.908 8.57V8.37H33.708V8.57H33.908ZM33.908 11.15H33.708V11.35H33.908V11.15ZM37.158 11.15H37.358V10.95H37.158V11.15ZM37.158 11.71V11.91H37.358V11.71H37.158ZM33.908 11.71V11.51H33.708V11.71H33.908ZM33.908 14.43H33.708V14.63H33.908V14.43ZM37.528 14.43H37.728V14.23H37.528V14.43ZM37.528 15V15.2H37.728V15H37.528ZM33.298 15H33.098V15.2H33.298V15ZM33.298 8.2H37.418V7.8H33.298V8.2ZM37.218 8V8.57H37.618V8H37.218ZM37.418 8.37H33.908V8.77H37.418V8.37ZM33.708 8.57V11.15H34.108V8.57H33.708ZM33.908 11.35H37.158V10.95H33.908V11.35ZM36.958 11.15V11.71H37.358V11.15H36.958ZM37.158 11.51H33.908V11.91H37.158V11.51ZM33.708 11.71V14.43H34.108V11.71H33.708ZM33.908 14.63H37.528V14.23H33.908V14.63ZM37.328 14.43V15H37.728V14.43H37.328ZM37.528 14.8H33.298V15.2H37.528V14.8ZM33.498 15V8H33.098V15H33.498Z" fill="#131314"/>
</svg>
