<svg width="18" height="18" viewBox="0 0 18 18" fill="none" xmlns="http://www.w3.org/2000/svg">
<path d="M10.125 9C10.125 9.62132 9.62132 10.125 9 10.125C8.37868 10.125 7.875 9.62132 7.875 9C7.875 8.37868 8.37868 7.875 9 7.875C9.62132 7.875 10.125 8.37868 10.125 9Z" fill="#444648"/>
<path d="M18 9C18 9.62132 17.4963 10.125 16.875 10.125C16.2537 10.125 15.75 9.62132 15.75 9C15.75 8.37868 16.2537 7.875 16.875 7.875C17.4963 7.875 18 8.37868 18 9Z" fill="#444648"/>
<path d="M2.25 9C2.25 9.62132 1.74632 10.125 1.125 10.125C0.50368 10.125 0 9.62132 0 9C0 8.37868 0.50368 7.875 1.125 7.875C1.74632 7.875 2.25 8.37868 2.25 9Z" fill="#444648"/>
<path d="M10.125 1.125C10.125 1.74632 9.62132 2.25 9 2.25C8.37868 2.25 7.875 1.74632 7.875 1.125C7.875 0.50368 8.37868 0 9 0C9.62132 0 10.125 0.50368 10.125 1.125Z" fill="#444648"/>
<path d="M18 1.125C18 1.74632 17.4963 2.25 16.875 2.25C16.2537 2.25 15.75 1.74632 15.75 1.125C15.75 0.50368 16.2537 0 16.875 0C17.4963 0 18 0.50368 18 1.125Z" fill="#444648"/>
<path d="M2.25 1.125C2.25 1.74632 1.74632 2.25 1.125 2.25C0.50368 2.25 0 1.74632 0 1.125C0 0.50368 0.50368 0 1.125 0C1.74632 0 2.25 0.50368 2.25 1.125Z" fill="#444648"/>
<path d="M10.125 16.875C10.125 17.4963 9.62132 18 9 18C8.37868 18 7.875 17.4963 7.875 16.875C7.875 16.2537 8.37868 15.75 9 15.75C9.62132 15.75 10.125 16.2537 10.125 16.875Z" fill="#444648"/>
<path d="M18 16.875C18 17.4963 17.4963 18 16.875 18C16.2537 18 15.75 17.4963 15.75 16.875C15.75 16.2537 16.2537 15.75 16.875 15.75C17.4963 15.75 18 16.2537 18 16.875Z" fill="#444648"/>
<path d="M2.25 16.875C2.25 17.4963 1.74632 18 1.125 18C0.50368 18 0 17.4963 0 16.875C0 16.2537 0.50368 15.75 1.125 15.75C1.74632 15.75 2.25 16.2537 2.25 16.875Z" fill="#444648"/>
</svg>
