<svg width="19" height="19" viewBox="0 0 19 19" fill="none" xmlns="http://www.w3.org/2000/svg">
<path fill-rule="evenodd" clip-rule="evenodd" d="M2.33156 13.7415L1.35222 18.0258L5.69773 16.6956L6.04403 16.8462C7.09869 17.3047 8.26747 17.5601 9.5 17.5601C14.1921 17.5601 18 13.8492 18 9.26654C18 4.68384 14.1921 0.972987 9.5 0.972987C4.80794 0.972987 1 4.68384 1 9.26654C1 10.7793 1.41417 12.1945 2.13708 13.4135L2.33156 13.7415ZM5.63603 17.7345C6.81651 18.2478 8.1241 18.5331 9.5 18.5331C14.7467 18.5331 19 14.3843 19 9.26654C19 4.14877 14.7467 0 9.5 0C4.25329 0 0 4.14877 0 9.26654C0 10.9544 0.462623 12.5368 1.27093 13.8998L0.376067 17.8146C0.208931 18.5457 0.917982 19.1787 1.65232 18.9539L5.63603 17.7345Z" fill="#444648"/>
</svg>
