<svg width="14" height="14" viewBox="0 0 14 14" fill="none" xmlns="http://www.w3.org/2000/svg">
<path fill-rule="evenodd" clip-rule="evenodd" d="M0.919211 0.157712C0.708929 -0.0525706 0.367994 -0.0525706 0.157712 0.157712C-0.0525706 0.367994 -0.0525706 0.708929 0.157712 0.919211L6.2385 7L0.157712 13.0808C-0.0525706 13.2911 -0.0525706 13.632 0.157712 13.8423C0.367994 14.0526 0.708929 14.0526 0.919211 13.8423L7 7.7615L13.0808 13.8423C13.2911 14.0526 13.632 14.0526 13.8423 13.8423C14.0526 13.632 14.0526 13.2911 13.8423 13.0808L7.7615 7L13.8423 0.919211C14.0526 0.708929 14.0526 0.367994 13.8423 0.157712C13.632 -0.0525706 13.2911 -0.0525706 13.0808 0.157712L7 6.2385L0.919211 0.157712Z" fill="#444648"/>
</svg>
