<svg width="15" height="18" viewBox="0 0 15 18" fill="none" xmlns="http://www.w3.org/2000/svg">
<path fill-rule="evenodd" clip-rule="evenodd" d="M4 3V1.5C4 0.671573 4.67157 0 5.5 0H9.5C10.3284 0 11 0.671573 11 1.5V3H14.5C14.7761 3 15 3.22386 15 3.5C15 3.77614 14.7761 4 14.5 4H0.5C0.223858 4 0 3.77614 0 3.5C0 3.22386 0.223858 3 0.5 3H4ZM5 1.5C5 1.22386 5.22386 1 5.5 1H9.5C9.77614 1 10 1.22386 10 1.5V3H5V1.5Z" fill="#444648"/>
<path d="M2.49815 5.95672C2.47423 5.68161 2.23182 5.47799 1.95671 5.50191C1.68161 5.52583 1.47799 5.76824 1.50191 6.04334L2.54162 18H12.4584L13.4981 6.04334C13.5221 5.76824 13.3184 5.52583 13.0433 5.50191C12.7682 5.47799 12.5258 5.68161 12.5019 5.95672L11.5416 17H3.45844L2.49815 5.95672Z" fill="#444648"/>
<path d="M5.49891 7.96676C5.48054 7.69123 5.24229 7.48276 4.96676 7.50113C4.69123 7.5195 4.48276 7.75775 4.50113 8.03328L5.00113 15.5333C5.0195 15.8088 5.25775 16.0173 5.53328 15.9989C5.80881 15.9805 6.01728 15.7423 5.99891 15.4668L5.49891 7.96676Z" fill="#444648"/>
<path d="M7.5 7.5C7.77614 7.5 8 7.72386 8 8V15.5C8 15.7761 7.77614 16 7.5 16C7.22386 16 7 15.7761 7 15.5V8C7 7.72386 7.22386 7.5 7.5 7.5Z" fill="#444648"/>
<path d="M10.4989 8.03328C10.5173 7.75775 10.3088 7.5195 10.0333 7.50113C9.75775 7.48276 9.5195 7.69123 9.50113 7.96676L9.00113 15.4668C8.98276 15.7423 9.19123 15.9805 9.46676 15.9989C9.74229 16.0173 9.98054 15.8088 9.99891 15.5333L10.4989 8.03328Z" fill="#444648"/>
</svg>
