<svg width="17" height="9" viewBox="0 0 17 9" fill="none" xmlns="http://www.w3.org/2000/svg">
<path d="M1.76158 4.14054C1.56161 3.95009 1.24512 3.95781 1.05468 4.15778C0.864236 4.35774 0.871955 4.67423 1.07192 4.86467L1.76158 4.14054ZM5.1355 8.04427L4.79067 8.40634C4.88935 8.50032 5.0221 8.54995 5.15823 8.54375C5.29435 8.53756 5.42205 8.47607 5.51179 8.37352L5.1355 8.04427ZM7.37116 6.24852C7.553 6.04071 7.53194 5.72482 7.32413 5.54298C7.11631 5.36114 6.80043 5.3822 6.61859 5.59002L7.37116 6.24852ZM6.01158 4.14054C5.81161 3.95009 5.49512 3.95781 5.30468 4.15778C5.11424 4.35774 5.12196 4.67423 5.32192 4.86467L6.01158 4.14054ZM9.3855 8.04427L9.04067 8.40634C9.13935 8.50032 9.2721 8.54995 9.40823 8.54375C9.54435 8.53756 9.67205 8.47607 9.76179 8.37352L9.3855 8.04427ZM15.9597 1.29019C16.1415 1.08237 16.1205 0.76649 15.9127 0.584649C15.7048 0.402808 15.389 0.423867 15.2071 0.631685L15.9597 1.29019ZM11.7097 1.29019C11.8915 1.08237 11.8705 0.76649 11.6627 0.584649C11.4548 0.402808 11.139 0.423867 10.9571 0.631685L11.7097 1.29019ZM8.47796 3.46502C8.29612 3.67284 8.31718 3.98872 8.525 4.17056C8.73281 4.3524 9.0487 4.33134 9.23054 4.12352L8.47796 3.46502ZM1.07192 4.86467L4.79067 8.40634L5.48033 7.6822L1.76158 4.14054L1.07192 4.86467ZM5.51179 8.37352L7.37116 6.24852L6.61859 5.59002L4.75921 7.71502L5.51179 8.37352ZM5.32192 4.86467L9.04067 8.40634L9.73033 7.6822L6.01158 4.14054L5.32192 4.86467ZM9.76179 8.37352L15.9597 1.29019L15.2071 0.631685L9.00921 7.71502L9.76179 8.37352ZM10.9571 0.631685L8.47796 3.46502L9.23054 4.12352L11.7097 1.29019L10.9571 0.631685Z" fill="#EC5EA2"/>
</svg>
