<svg width="16" height="16" viewBox="0 0 16 16" fill="none" xmlns="http://www.w3.org/2000/svg">
<path d="M15.6673 0.353478C15.472 0.158216 15.1554 0.158216 14.9602 0.353478L13.8995 1.41414L14.6066 2.12124L15.6673 1.06058C15.8625 0.865322 15.8625 0.54874 15.6673 0.353478Z" fill="#444648"/>
<path d="M4.87403 10.4396L13.1924 2.12126L13.8995 2.82837L5.58113 11.1467C5.47136 11.2565 5.33753 11.3392 5.19025 11.3883L4.35355 11.6672L4.63245 10.8305C4.68154 10.6832 4.76425 10.5494 4.87403 10.4396Z" fill="#444648"/>
<path d="M2.52881e-07 3.49992C2.52881e-07 2.6715 0.671573 1.99992 1.5 1.99992L8.5 1.99992C8.77614 1.99992 9 2.22378 9 2.49992C9 2.77607 8.77614 2.99992 8.5 2.99992L1.5 2.99992C1.22386 2.99992 1 3.22378 1 3.49992L1 14.4999C1 14.7761 1.22386 14.9999 1.5 14.9999L12.5 14.9999C12.7761 14.9999 13 14.7761 13 14.4999V7.49992C13 7.22378 13.2239 6.99992 13.5 6.99992C13.7761 6.99992 14 7.22378 14 7.49992V14.4999C14 15.3284 13.3284 15.9999 12.5 15.9999H1.5C0.671573 15.9999 -1.60685e-07 15.3284 0 14.4999L2.52881e-07 3.49992Z" fill="#444648"/>
</svg>
