<svg width="20" height="20" viewBox="0 0 20 20" fill="none" xmlns="http://www.w3.org/2000/svg">
<path d="M18.4335 13.15C17.1563 16.5678 13.8616 19 9.99997 19C5.0294 19 0.999969 14.9706 0.999969 10C0.999969 5.02944 5.0294 1 9.99997 1C13.8616 1 17.1563 3.43224 18.4335 6.85002C18.5301 7.10869 18.8182 7.24003 19.0769 7.14337C19.3355 7.04671 19.4669 6.75865 19.3702 6.49998C17.9518 2.70409 14.2923 0 9.99997 0C4.47712 0 -3.05176e-05 4.47715 -3.05176e-05 10C-3.05176e-05 15.5228 4.47712 20 9.99997 20C14.2923 20 17.9518 17.2959 19.3702 13.5C19.4669 13.2413 19.3355 12.9533 19.0769 12.8566C18.8182 12.76 18.5301 12.8913 18.4335 13.15Z" fill="#C2C7CC"/>
<path d="M10.7555 14.8536C10.5603 15.0488 10.2437 15.0488 10.0484 14.8536L5.54842 10.3536C5.35316 10.1583 5.35316 9.84171 5.54842 9.64645L10.0484 5.14645C10.2437 4.95118 10.5603 4.95118 10.7555 5.14645C10.9508 5.34171 10.9508 5.65829 10.7555 5.85355L7.10908 9.5L18.902 9.5C19.1781 9.5 19.402 9.72386 19.402 10C19.402 10.2761 19.1781 10.5 18.902 10.5L7.10908 10.5L10.7555 14.1464C10.9508 14.3417 10.9508 14.6583 10.7555 14.8536Z" fill="#C2C7CC"/>
</svg>
