<svg width="10" height="18" viewBox="0 0 10 18" fill="none" xmlns="http://www.w3.org/2000/svg">
<path d="M6.84001 2.87999H9.00001C9.19883 2.87999 9.36002 2.7188 9.36002 2.51998V0.359977C9.36002 0.16119 9.19883 0 9.00001 0H6.84001C4.65396 0.00239625 2.88239 1.77393 2.88002 3.95999V6.48H0.360011C0.16119 6.48 0 6.64119 0 6.84001V9.00001C0 9.19883 0.16119 9.36002 0.360011 9.36002H2.88002V16.92C2.88002 17.1188 3.04121 17.28 3.24003 17.28H5.40003C5.59886 17.28 5.76005 17.1188 5.76005 16.92V9.36002H8.28006C8.43493 9.35992 8.5724 9.26073 8.62134 9.11378L9.34133 6.95378C9.40417 6.76515 9.30218 6.5613 9.11355 6.49846C9.07696 6.48628 9.03862 6.48003 9.00005 6.48H5.76005V3.95999C5.76001 3.36352 6.24355 2.87999 6.84001 2.87999Z" fill="#424446"/>
</svg>
