<svg width="25" height="25" viewBox="0 0 25 25" fill="none" xmlns="http://www.w3.org/2000/svg">
<circle cx="12.5" cy="12.5" r="12.5" fill="#E9E8EC"/>
<path d="M18.2518 9.82955C18.1134 9.30948 17.7081 8.89954 17.1942 8.7595C16.2551 8.49951 12.4989 8.49951 12.4989 8.49951C12.4989 8.49951 8.74279 8.49951 7.80374 8.74959C7.29965 8.88954 6.88446 9.30957 6.74612 9.82955C6.49902 10.7795 6.49902 12.7495 6.49902 12.7495C6.49902 12.7495 6.49902 14.7295 6.74612 15.6695C6.88455 16.1895 7.28976 16.5995 7.80383 16.7395C8.75268 16.9995 12.499 16.9995 12.499 16.9995C12.499 16.9995 16.2551 16.9995 17.1942 16.7494C17.7082 16.6095 18.1134 16.1995 18.2519 15.6795C18.499 14.7295 18.499 12.7595 18.499 12.7595C18.499 12.7595 18.5089 10.7795 18.2518 9.82955Z" fill="#1F1A3D"/>
<path d="M11.002 14.5078L14.502 12.7578L11.002 11.0078V14.5078Z" fill="#E9E8EC"/>
</svg>
