<svg width="20" height="18" viewBox="0 0 20 18" fill="none" xmlns="http://www.w3.org/2000/svg">
<path fill-rule="evenodd" clip-rule="evenodd" d="M9.37876 3.00526C9.79369 3.50883 10.0001 3.90908 10.0001 3.90908C10.0001 3.90908 10.2064 3.50883 10.6214 3.00526C11.3251 2.15122 12.6287 1 14.543 1C17.0159 1 18.9743 3.00636 18.9996 5.40044C19.0507 10.37 14.9339 13.904 10.4219 16.874C10.2975 16.9561 10.1505 17 10.0001 17C9.8496 17 9.70262 16.9561 9.57821 16.874C5.0658 13.904 0.94898 10.37 1.00054 5.40044C1.02585 3.00636 2.98419 1 5.45718 1C7.37143 1 8.67505 2.15122 9.37876 3.00526ZM9.02843 17.7093C9.31771 17.8999 9.65616 18 10.0001 18C10.344 18 10.6825 17.8999 10.9717 17.7093C13.2503 16.2095 15.5042 14.5204 17.1854 12.5329C18.8788 10.5309 20.0282 8.18054 19.9995 5.39016C19.9685 2.45668 17.5728 0 14.543 0C12.6781 0 11.3069 0.896385 10.4368 1.73417C10.2762 1.88885 10.1306 2.04325 10.0001 2.19228C9.8695 2.04325 9.72398 1.88885 9.56332 1.73417C8.69319 0.896385 7.32202 0 5.45718 0C2.42733 0 0.0316096 2.45639 0.000595723 5.38987C-0.0283554 8.18028 1.12098 10.5309 2.81439 12.5329C4.49545 14.5203 6.74978 16.2096 9.02843 17.7093Z" fill="#444648"/>
</svg>
