<svg width="20" height="18" viewBox="0 0 20 18" fill="none" xmlns="http://www.w3.org/2000/svg">
<path fill-rule="evenodd" clip-rule="evenodd" d="M9.3787 3.00526C9.79363 3.50883 10 3.90908 10 3.90908C10 3.90908 10.2064 3.50883 10.6213 3.00526C11.325 2.15122 12.6286 1 14.5429 1C17.0159 1 18.9742 3.00636 18.9995 5.40044C19.0506 10.37 14.9338 13.904 10.4219 16.874C10.2975 16.9561 10.1505 17 10 17C9.84954 17 9.70256 16.9561 9.57815 16.874C5.06573 13.904 0.948919 10.37 1.00048 5.40044C1.02579 3.00636 2.98412 1 5.45712 1C7.37137 1 8.67498 2.15122 9.3787 3.00526ZM9.02837 17.7093C9.31765 17.8999 9.6561 18 10 18C10.3439 18 10.6824 17.8999 10.9717 17.7093C13.2502 16.2095 15.5042 14.5204 17.1853 12.5329C18.8787 10.5309 20.0282 8.18054 19.9995 5.39016C19.9685 2.45668 17.5727 0 14.5429 0C12.678 0 11.3069 0.896385 10.4367 1.73417C10.2761 1.88885 10.1306 2.04325 10 2.19228C9.86944 2.04325 9.72392 1.88885 9.56326 1.73417C8.69313 0.896385 7.32196 0 5.45712 0C2.42727 0 0.0315485 2.45639 0.000534688 5.38987C-0.0284164 8.18028 1.12092 10.5309 2.81433 12.5329C4.49539 14.5203 6.74972 16.2096 9.02837 17.7093Z" fill="#131314"/>
</svg>
