<svg width="19" height="20" viewBox="0 0 19 20" fill="none" xmlns="http://www.w3.org/2000/svg">
<path fill-rule="evenodd" clip-rule="evenodd" d="M1 8.45468V19.0009H6V14.5009C6 12.5679 7.567 11.0009 9.5 11.0009C11.433 11.0009 13 12.5679 13 14.5009V19.0009H18V8.45468L14.354 5.26438L9.5 1.29297L4.64605 5.26438L1 8.45468ZM4 4.50091L8.86676 0.519011C9.23513 0.217621 9.76487 0.217621 10.1332 0.519012L15 4.50091L18.6585 7.7021C18.8755 7.89199 19 8.16631 19 8.45468V19.0009C19 19.5532 18.5523 20.0009 18 20.0009H13C12.4477 20.0009 12 19.5532 12 19.0009V14.5009C12 13.1202 10.8807 12.0009 9.5 12.0009C8.11929 12.0009 7 13.1202 7 14.5009V19.0009C7 19.5532 6.55228 20.0009 6 20.0009H1C0.447715 20.0009 0 19.5532 0 19.0009V8.45468C0 8.16631 0.12448 7.89199 0.341495 7.7021L4 4.50091Z" fill="#444648"/>
</svg>
