<svg width="18" height="18" viewBox="0 0 18 18" fill="none" xmlns="http://www.w3.org/2000/svg">
<path d="M8.8104 17.28C8.75318 17.28 8.69597 17.28 8.63835 17.2797C7.28382 17.283 6.03225 17.2486 4.81509 17.1745C3.69919 17.1066 2.68059 16.721 1.86924 16.0595C1.08637 15.4211 0.551754 14.558 0.280294 13.4943C0.0440349 12.5683 0.03151 11.6593 0.0195125 10.7801C0.0108109 10.1492 0.00184577 9.40172 0 8.64156C0.00184577 7.87822 0.0108109 7.13071 0.0195125 6.49988C0.03151 5.62079 0.0440349 4.71178 0.280294 3.78563C0.551754 2.72198 1.08637 1.85884 1.86924 1.22049C2.68059 0.558937 3.69919 0.173316 4.81523 0.105421C6.03238 0.0314604 7.28421 -0.00308071 8.64165 0.000215195C9.99658 -0.0026852 11.2477 0.0314604 12.4649 0.105421C13.5808 0.173316 14.5994 0.558937 15.4108 1.22049C16.1938 1.85884 16.7282 2.72198 16.9997 3.78563C17.236 4.71165 17.2485 5.62079 17.2605 6.49988C17.2692 7.13071 17.2783 7.87822 17.28 8.63839V8.64156C17.2783 9.40172 17.2692 10.1492 17.2605 10.7801C17.2485 11.6592 17.2361 12.5682 16.9997 13.4943C16.7282 14.558 16.1938 15.4211 15.4108 16.0595C14.5994 16.721 13.5808 17.1066 12.4649 17.1745C11.2993 17.2455 10.1019 17.28 8.8104 17.28ZM8.63835 15.9297C9.97087 15.9329 11.1944 15.8993 12.3829 15.827C13.2267 15.7757 13.9583 15.5019 14.5576 15.0132C15.1116 14.5614 15.4932 13.9381 15.6916 13.1605C15.8883 12.3897 15.8996 11.562 15.9106 10.7616C15.9191 10.135 15.9281 9.39276 15.9299 8.63997C15.9281 7.88706 15.9191 7.14495 15.9106 6.51833C15.8996 5.71795 15.8883 4.89029 15.6916 4.11931C15.4932 3.34174 15.1116 2.71842 14.5576 2.26661C13.9583 1.77803 13.2267 1.5042 12.3829 1.45292C11.1944 1.38054 9.97087 1.34719 8.64151 1.35009C7.30926 1.34692 6.08565 1.38054 4.8971 1.45292C4.05332 1.5042 3.32173 1.77803 2.72238 2.26661C2.16839 2.71842 1.78684 3.34174 1.58842 4.11931C1.39171 4.89029 1.38037 5.71782 1.36943 6.51833C1.36086 7.14548 1.3519 7.88811 1.35005 8.64156C1.3519 9.3917 1.36086 10.1345 1.36943 10.7616C1.38037 11.562 1.39171 12.3897 1.58842 13.1605C1.78684 13.9381 2.16839 14.5614 2.72238 15.0132C3.32173 15.5018 4.05332 15.7756 4.8971 15.8269C6.08565 15.8993 7.30953 15.933 8.63835 15.9297ZM8.60618 12.8587C6.27998 12.8587 4.38727 10.9662 4.38727 8.63997C4.38727 6.31372 6.27998 4.42121 8.60618 4.42121C10.9325 4.42121 12.8251 6.31372 12.8251 8.63997C12.8251 10.9662 10.9325 12.8587 8.60618 12.8587ZM8.60618 5.77122C7.02435 5.77122 5.73732 7.0582 5.73732 8.63997C5.73732 10.2217 7.02435 11.5087 8.60618 11.5087C10.1881 11.5087 11.475 10.2217 11.475 8.63997C11.475 7.0582 10.1881 5.77122 8.60618 5.77122ZM13.2976 3.07121C12.7385 3.07121 12.2851 3.52446 12.2851 4.08371C12.2851 4.64296 12.7385 5.09621 13.2976 5.09621C13.8569 5.09621 14.3101 4.64296 14.3101 4.08371C14.3101 3.52446 13.8569 3.07121 13.2976 3.07121Z" fill="#424446"/>
</svg>
