<svg width="18" height="20" viewBox="0 0 18 20" fill="none" xmlns="http://www.w3.org/2000/svg">
<path d="M3 6.5C3 6.22386 3.22386 6 3.5 6C3.77614 6 4 6.22386 4 6.5C4 6.77614 3.77614 7 3.5 7C3.22386 7 3 6.77614 3 6.5Z" fill="#EC5EA2"/>
<path d="M3.5 10C3.22386 10 3 10.2239 3 10.5C3 10.7761 3.22386 11 3.5 11C3.77614 11 4 10.7761 4 10.5C4 10.2239 3.77614 10 3.5 10Z" fill="#EC5EA2"/>
<path d="M3 14.5C3 14.2239 3.22386 14 3.5 14C3.77614 14 4 14.2239 4 14.5C4 14.7761 3.77614 15 3.5 15C3.22386 15 3 14.7761 3 14.5Z" fill="#EC5EA2"/>
<path d="M6.5 6C6.22386 6 6 6.22386 6 6.5C6 6.77614 6.22386 7 6.5 7H14.5C14.7761 7 15 6.77614 15 6.5C15 6.22386 14.7761 6 14.5 6H6.5Z" fill="#EC5EA2"/>
<path d="M6 10.5C6 10.2239 6.22386 10 6.5 10H14.5C14.7761 10 15 10.2239 15 10.5C15 10.7761 14.7761 11 14.5 11H6.5C6.22386 11 6 10.7761 6 10.5Z" fill="#EC5EA2"/>
<path d="M6.5 14C6.22386 14 6 14.2239 6 14.5C6 14.7761 6.22386 15 6.5 15H14.5C14.7761 15 15 14.7761 15 14.5C15 14.2239 14.7761 14 14.5 14H6.5Z" fill="#EC5EA2"/>
<path fill-rule="evenodd" clip-rule="evenodd" d="M1 0C0.447715 0 0 0.447716 0 1V19C0 19.5523 0.447716 20 1 20H17C17.5523 20 18 19.5523 18 19V1C18 0.447715 17.5523 0 17 0H1ZM17 1H1V19H17V1Z" fill="#EC5EA2"/>
</svg>
