<svg width="160" height="22" viewBox="0 0 160 22" fill="none" xmlns="http://www.w3.org/2000/svg">
<mask id="mask0_138_50842" style="mask-type:alpha" maskUnits="userSpaceOnUse" x="0" y="0" width="160" height="22">
<path d="M160 0H0V22H160V0Z" fill="white"/>
<path d="M153.852 1H154.496L156.427 3.96441L158.357 1H159.001V5.64164H158.299V2.36519L156.661 4.82253H156.232L154.554 2.34569V5.64164H153.852V1ZM149.308 1H153.15V1.68259H151.59V5.64164H150.868V1.68259H149.308V1Z" fill="black"/>
<path d="M1 7.09448H6.18771C7.44889 7.09448 8.45003 7.41952 9.19113 8.06961C9.94523 8.7067 10.3223 9.56482 10.3223 10.644C10.3223 11.3851 10.1338 12.0222 9.75671 12.5552C9.39266 13.0883 8.87908 13.4719 8.21599 13.7059C9.0091 13.9399 9.62019 14.3495 10.0492 14.9346C10.4913 15.5066 10.7123 16.2022 10.7123 17.0214C10.7123 18.1655 10.3223 19.0756 9.54218 19.7517C8.77507 20.4148 7.72843 20.7464 6.40224 20.7464H1V7.09448ZM6.36324 19.6347C7.35137 19.6347 8.11848 19.4007 8.66456 18.9326C9.22363 18.4646 9.50317 17.8145 9.50317 16.9823C9.50317 16.1372 9.22363 15.4871 8.66456 15.0321C8.10548 14.564 7.31887 14.33 6.30473 14.33H2.18966V19.6347H6.36324ZM6.14871 13.2378C7.08484 13.2378 7.81294 13.0168 8.33301 12.5747C8.85308 12.1327 9.11312 11.5151 9.11312 10.722C9.11312 9.94187 8.85308 9.33079 8.33301 8.88872C7.81294 8.43366 7.09134 8.20613 6.16821 8.20613H2.18966V13.2378H6.14871Z" fill="black"/>
<path d="M14.1794 7.09448H22.2146V8.20613H15.3691V13.2378H21.7075V14.33H15.3691V19.6347H22.4291V20.7464H14.1794V7.09448Z" fill="black"/>
<path d="M29.945 7.09448H31.0762L36.732 20.7464H35.4838L34.0601 17.3139H26.9611L25.5569 20.7464H24.2893L29.945 7.09448ZM33.6115 16.2217L30.5106 8.7132L27.4292 16.2217H33.6115Z" fill="black"/>
<path d="M43.7025 20.9804C42.1033 20.9804 40.8421 20.4863 39.919 19.4982C39.0089 18.4971 38.5538 17.1189 38.5538 15.3636V7.09448H39.7239V15.3051C39.7239 16.7613 40.0685 17.8795 40.7576 18.6596C41.4467 19.4397 42.4283 19.8297 43.7025 19.8297C44.9767 19.8297 45.9583 19.4397 46.6474 18.6596C47.3365 17.8795 47.681 16.7613 47.681 15.3051V7.09448H48.8512V15.3636C48.8512 17.1189 48.3896 18.4971 47.4665 19.4982C46.5564 20.4863 45.3017 20.9804 43.7025 20.9804Z" fill="black"/>
<path d="M56.3271 8.22563H51.627V7.09448H62.2169V8.22563H57.4973V20.7464H56.3271V8.22563Z" fill="black"/>
<path d="M68.5581 15.7342L63.3898 7.09448H64.755L69.1626 14.4665L73.5507 7.09448H74.8964L69.7282 15.6952V20.7464H68.5581V15.7342Z" fill="black"/>
<path d="M81.9058 7.09448H89.4338V8.20613H83.0954V13.5694H88.9267V14.6615H83.0954V20.7464H81.9058V7.09448Z" fill="black"/>
<path d="M98.6941 21C97.3289 21 96.1133 20.701 95.0471 20.1029C93.981 19.5048 93.1489 18.6727 92.5508 17.6065C91.9527 16.5274 91.6537 15.2987 91.6537 13.9205C91.6537 12.5423 91.9527 11.3202 92.5508 10.254C93.1489 9.17488 93.981 8.33627 95.0471 7.73819C96.1133 7.1401 97.3289 6.84106 98.6941 6.84106C100.072 6.84106 101.294 7.1401 102.361 7.73819C103.427 8.33627 104.252 9.17488 104.837 10.254C105.436 11.3202 105.735 12.5423 105.735 13.9205C105.735 15.2987 105.436 16.5274 104.837 17.6065C104.252 18.6727 103.427 19.5048 102.361 20.1029C101.294 20.701 100.072 21 98.6941 21ZM92.8628 13.9205C92.8628 15.0647 93.1099 16.0853 93.6039 16.9824C94.098 17.8796 94.7806 18.5752 95.6517 19.0692C96.5358 19.5633 97.55 19.8103 98.6941 19.8103C99.8383 19.8103 100.852 19.5633 101.737 19.0692C102.621 18.5752 103.31 17.8861 103.804 17.0019C104.298 16.1048 104.545 15.0777 104.545 13.9205C104.545 12.7634 104.298 11.7427 103.804 10.8586C103.31 9.96149 102.621 9.2659 101.737 8.77183C100.852 8.27776 99.8383 8.03073 98.6941 8.03073C97.55 8.03073 96.5358 8.27776 95.6517 8.77183C94.7806 9.2659 94.098 9.96149 93.6039 10.8586C93.1099 11.7427 92.8628 12.7634 92.8628 13.9205Z" fill="black"/>
<path d="M109.179 7.09448H114.23C115.14 7.09448 115.933 7.27 116.609 7.62105C117.299 7.9721 117.832 8.46617 118.209 9.10325C118.586 9.74034 118.774 10.488 118.774 11.3461C118.774 12.4642 118.462 13.3939 117.838 14.135C117.214 14.8761 116.362 15.3376 115.283 15.5196L118.989 20.7464H117.565L113.899 15.6172H110.369V20.7464H109.179V7.09448ZM114.113 14.486C115.192 14.486 116.037 14.2065 116.648 13.6474C117.26 13.0883 117.565 12.3212 117.565 11.3461C117.565 10.3839 117.26 9.62332 116.648 9.06425C116.037 8.50517 115.192 8.22563 114.113 8.22563H110.369V14.486H114.113Z" fill="black"/>
<path d="M128.307 21C126.981 21 125.791 20.701 124.738 20.1029C123.685 19.4918 122.86 18.6532 122.261 17.587C121.676 16.5079 121.384 15.2857 121.384 13.9205C121.384 12.5553 121.676 11.3397 122.261 10.2735C122.86 9.19439 123.685 8.35577 124.738 7.75769C125.791 7.1466 126.981 6.84106 128.307 6.84106C129.867 6.84106 131.239 7.26362 132.422 8.10874C133.619 8.95385 134.438 10.0915 134.88 11.5217H133.632C133.241 10.4425 132.572 9.59094 131.623 8.96686C130.674 8.34277 129.575 8.03073 128.327 8.03073C127.222 8.03073 126.233 8.27776 125.362 8.77183C124.491 9.2659 123.809 9.96149 123.315 10.8586C122.834 11.7557 122.593 12.7764 122.593 13.9205C122.593 15.0647 122.834 16.0853 123.315 16.9824C123.809 17.8796 124.491 18.5752 125.362 19.0692C126.233 19.5633 127.222 19.8103 128.327 19.8103C129.614 19.8103 130.745 19.4853 131.72 18.8352C132.695 18.1851 133.371 17.2945 133.749 16.1633H134.997C134.724 17.1385 134.262 17.9901 133.612 18.7182C132.962 19.4463 132.182 20.0119 131.272 20.4149C130.362 20.805 129.373 21 128.307 21Z" fill="black"/>
<path d="M138.376 7.09448H146.411V8.20613H139.565V13.2378H145.904V14.33H139.565V19.6347H146.625V20.7464H138.376V7.09448Z" fill="black"/>
</mask>
<g mask="url(#mask0_138_50842)">
<path d="M153.852 1H154.496L156.427 3.96441L158.357 1H159.001V5.64164H158.299V2.36519L156.661 4.82253H156.232L154.554 2.34569V5.64164H153.852V1ZM149.308 1H153.15V1.68259H151.59V5.64164H150.868V1.68259H149.308V1Z" fill="#EB5772"/>
<path d="M1 7.09448H6.18771C7.44889 7.09448 8.45003 7.41952 9.19113 8.06961C9.94523 8.7067 10.3223 9.56482 10.3223 10.644C10.3223 11.3851 10.1338 12.0222 9.75671 12.5552C9.39266 13.0883 8.87908 13.4719 8.21599 13.7059C9.0091 13.9399 9.62019 14.3495 10.0492 14.9346C10.4913 15.5066 10.7123 16.2022 10.7123 17.0214C10.7123 18.1655 10.3223 19.0756 9.54218 19.7517C8.77507 20.4148 7.72843 20.7464 6.40224 20.7464H1V7.09448ZM6.36324 19.6347C7.35137 19.6347 8.11848 19.4007 8.66456 18.9326C9.22363 18.4646 9.50317 17.8145 9.50317 16.9823C9.50317 16.1372 9.22363 15.4871 8.66456 15.0321C8.10548 14.564 7.31887 14.33 6.30473 14.33H2.18966V19.6347H6.36324ZM6.14871 13.2378C7.08484 13.2378 7.81294 13.0168 8.33301 12.5747C8.85308 12.1327 9.11312 11.5151 9.11312 10.722C9.11312 9.94187 8.85308 9.33079 8.33301 8.88872C7.81294 8.43366 7.09134 8.20613 6.16821 8.20613H2.18966V13.2378H6.14871Z" fill="#EB5772"/>
<path d="M14.1794 7.09448H22.2146V8.20613H15.3691V13.2378H21.7075V14.33H15.3691V19.6347H22.4291V20.7464H14.1794V7.09448Z" fill="#EB5772"/>
<path d="M29.945 7.09448H31.0762L36.732 20.7464H35.4838L34.0601 17.3139H26.9611L25.5569 20.7464H24.2893L29.945 7.09448ZM33.6115 16.2217L30.5106 8.7132L27.4292 16.2217H33.6115Z" fill="#EB5772"/>
<path d="M43.7025 20.9804C42.1033 20.9804 40.8421 20.4863 39.919 19.4982C39.0089 18.4971 38.5538 17.1189 38.5538 15.3636V7.09448H39.7239V15.3051C39.7239 16.7613 40.0685 17.8795 40.7576 18.6596C41.4467 19.4397 42.4283 19.8297 43.7025 19.8297C44.9767 19.8297 45.9583 19.4397 46.6474 18.6596C47.3365 17.8795 47.681 16.7613 47.681 15.3051V7.09448H48.8512V15.3636C48.8512 17.1189 48.3896 18.4971 47.4665 19.4982C46.5564 20.4863 45.3017 20.9804 43.7025 20.9804Z" fill="#EB5772"/>
<path d="M56.3271 8.22563H51.627V7.09448H62.2169V8.22563H57.4973V20.7464H56.3271V8.22563Z" fill="#EB5772"/>
<path d="M68.5581 15.7342L63.3898 7.09448H64.755L69.1626 14.4665L73.5507 7.09448H74.8964L69.7282 15.6952V20.7464H68.5581V15.7342Z" fill="#EB5772"/>
<path d="M81.9058 7.09448H89.4338V8.20613H83.0954V13.5694H88.9267V14.6615H83.0954V20.7464H81.9058V7.09448Z" fill="#EB5772"/>
<path d="M98.6941 21C97.3289 21 96.1133 20.701 95.0471 20.1029C93.981 19.5048 93.1489 18.6727 92.5508 17.6065C91.9527 16.5274 91.6537 15.2987 91.6537 13.9205C91.6537 12.5423 91.9527 11.3202 92.5508 10.254C93.1489 9.17488 93.981 8.33627 95.0471 7.73819C96.1133 7.1401 97.3289 6.84106 98.6941 6.84106C100.072 6.84106 101.294 7.1401 102.361 7.73819C103.427 8.33627 104.252 9.17488 104.837 10.254C105.436 11.3202 105.735 12.5423 105.735 13.9205C105.735 15.2987 105.436 16.5274 104.837 17.6065C104.252 18.6727 103.427 19.5048 102.361 20.1029C101.294 20.701 100.072 21 98.6941 21ZM92.8628 13.9205C92.8628 15.0647 93.1099 16.0853 93.6039 16.9824C94.098 17.8796 94.7806 18.5752 95.6517 19.0692C96.5358 19.5633 97.55 19.8103 98.6941 19.8103C99.8383 19.8103 100.852 19.5633 101.737 19.0692C102.621 18.5752 103.31 17.8861 103.804 17.0019C104.298 16.1048 104.545 15.0777 104.545 13.9205C104.545 12.7634 104.298 11.7427 103.804 10.8586C103.31 9.96149 102.621 9.2659 101.737 8.77183C100.852 8.27776 99.8383 8.03073 98.6941 8.03073C97.55 8.03073 96.5358 8.27776 95.6517 8.77183C94.7806 9.2659 94.098 9.96149 93.6039 10.8586C93.1099 11.7427 92.8628 12.7634 92.8628 13.9205Z" fill="#EB5772"/>
<path d="M109.179 7.09448H114.23C115.14 7.09448 115.933 7.27 116.609 7.62105C117.299 7.9721 117.832 8.46617 118.209 9.10325C118.586 9.74034 118.774 10.488 118.774 11.3461C118.774 12.4642 118.462 13.3939 117.838 14.135C117.214 14.8761 116.362 15.3376 115.283 15.5196L118.989 20.7464H117.565L113.899 15.6172H110.369V20.7464H109.179V7.09448ZM114.113 14.486C115.192 14.486 116.037 14.2065 116.648 13.6474C117.26 13.0883 117.565 12.3212 117.565 11.3461C117.565 10.3839 117.26 9.62332 116.648 9.06425C116.037 8.50517 115.192 8.22563 114.113 8.22563H110.369V14.486H114.113Z" fill="#EB5772"/>
<path d="M128.307 21C126.981 21 125.791 20.701 124.738 20.1029C123.685 19.4918 122.86 18.6532 122.261 17.587C121.676 16.5079 121.384 15.2857 121.384 13.9205C121.384 12.5553 121.676 11.3397 122.261 10.2735C122.86 9.19439 123.685 8.35577 124.738 7.75769C125.791 7.1466 126.981 6.84106 128.307 6.84106C129.867 6.84106 131.239 7.26362 132.422 8.10874C133.619 8.95385 134.438 10.0915 134.88 11.5217H133.632C133.241 10.4425 132.572 9.59094 131.623 8.96686C130.674 8.34277 129.575 8.03073 128.327 8.03073C127.222 8.03073 126.233 8.27776 125.362 8.77183C124.491 9.2659 123.809 9.96149 123.315 10.8586C122.834 11.7557 122.593 12.7764 122.593 13.9205C122.593 15.0647 122.834 16.0853 123.315 16.9824C123.809 17.8796 124.491 18.5752 125.362 19.0692C126.233 19.5633 127.222 19.8103 128.327 19.8103C129.614 19.8103 130.745 19.4853 131.72 18.8352C132.695 18.1851 133.371 17.2945 133.749 16.1633H134.997C134.724 17.1385 134.262 17.9901 133.612 18.7182C132.962 19.4463 132.182 20.0119 131.272 20.4149C130.362 20.805 129.373 21 128.307 21Z" fill="#EB5772"/>
<path d="M138.376 7.09448H146.411V8.20613H139.565V13.2378H145.904V14.33H139.565V19.6347H146.625V20.7464H138.376V7.09448Z" fill="#EB5772"/>
<path d="M153.852 1H154.496L156.427 3.96441L158.357 1H159.001V5.64164H158.299V2.36519L156.661 4.82253H156.232L154.554 2.34569V5.64164H153.852V1ZM149.308 1H153.15V1.68259H151.59V5.64164H150.868V1.68259H149.308V1Z" stroke="#EB5772" stroke-width="0.2"/>
<path d="M1 7.09448H6.18771C7.44889 7.09448 8.45003 7.41952 9.19113 8.06961C9.94523 8.7067 10.3223 9.56482 10.3223 10.644C10.3223 11.3851 10.1338 12.0222 9.75671 12.5552C9.39266 13.0883 8.87908 13.4719 8.21599 13.7059C9.0091 13.9399 9.62019 14.3495 10.0492 14.9346C10.4913 15.5066 10.7123 16.2022 10.7123 17.0214C10.7123 18.1655 10.3223 19.0756 9.54218 19.7517C8.77507 20.4148 7.72843 20.7464 6.40224 20.7464H1V7.09448ZM6.36324 19.6347C7.35137 19.6347 8.11848 19.4007 8.66456 18.9326C9.22363 18.4646 9.50317 17.8145 9.50317 16.9823C9.50317 16.1372 9.22363 15.4871 8.66456 15.0321C8.10548 14.564 7.31887 14.33 6.30473 14.33H2.18966V19.6347H6.36324ZM6.14871 13.2378C7.08484 13.2378 7.81294 13.0168 8.33301 12.5747C8.85308 12.1327 9.11312 11.5151 9.11312 10.722C9.11312 9.94187 8.85308 9.33079 8.33301 8.88872C7.81294 8.43366 7.09134 8.20613 6.16821 8.20613H2.18966V13.2378H6.14871Z" stroke="#EB5772" stroke-width="0.2"/>
<path d="M14.1794 7.09448H22.2146V8.20613H15.3691V13.2378H21.7075V14.33H15.3691V19.6347H22.4291V20.7464H14.1794V7.09448Z" stroke="#EB5772" stroke-width="0.2"/>
<path d="M29.945 7.09448H31.0762L36.732 20.7464H35.4838L34.0601 17.3139H26.9611L25.5569 20.7464H24.2893L29.945 7.09448ZM33.6115 16.2217L30.5106 8.7132L27.4292 16.2217H33.6115Z" stroke="#EB5772" stroke-width="0.2"/>
<path d="M43.7025 20.9804C42.1033 20.9804 40.8421 20.4863 39.919 19.4982C39.0089 18.4971 38.5538 17.1189 38.5538 15.3636V7.09448H39.7239V15.3051C39.7239 16.7613 40.0685 17.8795 40.7576 18.6596C41.4467 19.4397 42.4283 19.8297 43.7025 19.8297C44.9767 19.8297 45.9583 19.4397 46.6474 18.6596C47.3365 17.8795 47.681 16.7613 47.681 15.3051V7.09448H48.8512V15.3636C48.8512 17.1189 48.3896 18.4971 47.4665 19.4982C46.5564 20.4863 45.3017 20.9804 43.7025 20.9804Z" stroke="#EB5772" stroke-width="0.2"/>
<path d="M56.3271 8.22563H51.627V7.09448H62.2169V8.22563H57.4973V20.7464H56.3271V8.22563Z" stroke="#EB5772" stroke-width="0.2"/>
<path d="M68.5581 15.7342L63.3898 7.09448H64.755L69.1626 14.4665L73.5507 7.09448H74.8964L69.7282 15.6952V20.7464H68.5581V15.7342Z" stroke="#EB5772" stroke-width="0.2"/>
<path d="M81.9058 7.09448H89.4338V8.20613H83.0954V13.5694H88.9267V14.6615H83.0954V20.7464H81.9058V7.09448Z" stroke="#EB5772" stroke-width="0.2"/>
<path d="M98.6941 21C97.3289 21 96.1133 20.701 95.0471 20.1029C93.981 19.5048 93.1489 18.6727 92.5508 17.6065C91.9527 16.5274 91.6537 15.2987 91.6537 13.9205C91.6537 12.5423 91.9527 11.3202 92.5508 10.254C93.1489 9.17488 93.981 8.33627 95.0471 7.73819C96.1133 7.1401 97.3289 6.84106 98.6941 6.84106C100.072 6.84106 101.294 7.1401 102.361 7.73819C103.427 8.33627 104.252 9.17488 104.837 10.254C105.436 11.3202 105.735 12.5423 105.735 13.9205C105.735 15.2987 105.436 16.5274 104.837 17.6065C104.252 18.6727 103.427 19.5048 102.361 20.1029C101.294 20.701 100.072 21 98.6941 21ZM92.8628 13.9205C92.8628 15.0647 93.1099 16.0853 93.6039 16.9824C94.098 17.8796 94.7806 18.5752 95.6517 19.0692C96.5358 19.5633 97.55 19.8103 98.6941 19.8103C99.8383 19.8103 100.852 19.5633 101.737 19.0692C102.621 18.5752 103.31 17.8861 103.804 17.0019C104.298 16.1048 104.545 15.0777 104.545 13.9205C104.545 12.7634 104.298 11.7427 103.804 10.8586C103.31 9.96149 102.621 9.2659 101.737 8.77183C100.852 8.27776 99.8383 8.03073 98.6941 8.03073C97.55 8.03073 96.5358 8.27776 95.6517 8.77183C94.7806 9.2659 94.098 9.96149 93.6039 10.8586C93.1099 11.7427 92.8628 12.7634 92.8628 13.9205Z" stroke="#EB5772" stroke-width="0.2"/>
<path d="M109.179 7.09448H114.23C115.14 7.09448 115.933 7.27 116.609 7.62105C117.299 7.9721 117.832 8.46617 118.209 9.10325C118.586 9.74034 118.774 10.488 118.774 11.3461C118.774 12.4642 118.462 13.3939 117.838 14.135C117.214 14.8761 116.362 15.3376 115.283 15.5196L118.989 20.7464H117.565L113.899 15.6172H110.369V20.7464H109.179V7.09448ZM114.113 14.486C115.192 14.486 116.037 14.2065 116.648 13.6474C117.26 13.0883 117.565 12.3212 117.565 11.3461C117.565 10.3839 117.26 9.62332 116.648 9.06425C116.037 8.50517 115.192 8.22563 114.113 8.22563H110.369V14.486H114.113Z" stroke="#EB5772" stroke-width="0.2"/>
<path d="M128.307 21C126.981 21 125.791 20.701 124.738 20.1029C123.685 19.4918 122.86 18.6532 122.261 17.587C121.676 16.5079 121.384 15.2857 121.384 13.9205C121.384 12.5553 121.676 11.3397 122.261 10.2735C122.86 9.19439 123.685 8.35577 124.738 7.75769C125.791 7.1466 126.981 6.84106 128.307 6.84106C129.867 6.84106 131.239 7.26362 132.422 8.10874C133.619 8.95385 134.438 10.0915 134.88 11.5217H133.632C133.241 10.4425 132.572 9.59094 131.623 8.96686C130.674 8.34277 129.575 8.03073 128.327 8.03073C127.222 8.03073 126.233 8.27776 125.362 8.77183C124.491 9.2659 123.809 9.96149 123.315 10.8586C122.834 11.7557 122.593 12.7764 122.593 13.9205C122.593 15.0647 122.834 16.0853 123.315 16.9824C123.809 17.8796 124.491 18.5752 125.362 19.0692C126.233 19.5633 127.222 19.8103 128.327 19.8103C129.614 19.8103 130.745 19.4853 131.72 18.8352C132.695 18.1851 133.371 17.2945 133.749 16.1633H134.997C134.724 17.1385 134.262 17.9901 133.612 18.7182C132.962 19.4463 132.182 20.0119 131.272 20.4149C130.362 20.805 129.373 21 128.307 21Z" stroke="#EB5772" stroke-width="0.2"/>
<path d="M138.376 7.09448H146.411V8.20613H139.565V13.2378H145.904V14.33H139.565V19.6347H146.625V20.7464H138.376V7.09448Z" stroke="#EB5772" stroke-width="0.2"/>
</g>
</svg>
