<svg width="20" height="21" viewBox="0 0 20 21" fill="none" xmlns="http://www.w3.org/2000/svg">
<path fill-rule="evenodd" clip-rule="evenodd" d="M5.2342 5C5.31904 4.53911 5.43461 4.08049 5.59205 3.64315C5.89385 2.80478 6.35979 2.01269 7.08547 1.43035C7.81797 0.842531 8.77604 0.5 9.99995 0.5C11.2239 0.5 12.1819 0.842531 12.9145 1.43035C13.6401 2.01269 14.1061 2.80477 14.4079 3.64314C14.5653 4.08048 14.6809 4.53911 14.7658 5H17.1173C17.6216 5 18.047 5.37554 18.1096 5.87597L19.8596 19.876C19.9342 20.4728 19.4688 21 18.8673 21H1.13284C0.531339 21 0.0659533 20.4728 0.14056 19.876L1.89056 5.87597C1.95311 5.37554 2.37851 5 2.88284 5H5.2342ZM6.25228 5C6.32371 4.65097 6.41535 4.3085 6.53294 3.98185C6.79362 3.25772 7.17141 2.64356 7.71134 2.21027C8.24444 1.78247 8.97387 1.5 9.99995 1.5C11.026 1.5 11.7555 1.78247 12.2886 2.21028C12.8285 2.64356 13.2063 3.25773 13.467 3.98186C13.5846 4.3085 13.6763 4.65097 13.7477 5H6.25228ZM5.09376 6C4.99998 6.92422 4.99999 7.80071 5 8.46932L5 8.49999C5 8.77613 5.22385 8.99999 5.49999 9C5.77613 9 6 8.77615 6 8.50001C6.00001 7.78263 6.00161 6.89844 6.09905 6H13.9009C13.9984 6.89844 14 7.78263 14 8.5C14 8.77614 14.2238 9 14.5 9C14.7761 9 15 8.77614 15 8.5V8.46962C15 7.80097 15 6.92435 14.9062 6H17.1173L18.8673 20H1.13284L2.88284 6H5.09376Z" fill="#C7CCD1"/>
</svg>
