<svg width="18" height="23" viewBox="0 0 18 23" fill="none" xmlns="http://www.w3.org/2000/svg">
<path fill-rule="evenodd" clip-rule="evenodd" d="M8.99529 0C7.7105 0 6.65668 1.00716 6.58449 2.27674C3.25541 3.3046 0.836294 6.40509 0.836294 10.0765V13.6892C0.836294 14.6124 0.757176 16.1179 0.661056 17.031L0.50274 18.535C0.422289 19.2993 0.998759 19.9347 1.76301 19.9347H5.5269C5.7408 21.6507 7.20458 22.9786 8.9785 22.9786C10.7524 22.9786 12.2162 21.6507 12.4301 19.9347H16.2276C16.9954 19.9347 17.5681 19.297 17.4878 18.535L17.3295 17.031C17.2331 16.1146 17.1543 14.6117 17.1543 13.6892V10.0765C17.1543 6.40791 14.7357 3.30548 11.4061 2.27694C11.334 1.01097 10.283 0 8.99529 0ZM11.419 19.9347H6.53799C6.74347 21.0963 7.75796 21.9786 8.9785 21.9786C10.199 21.9786 11.2135 21.0963 11.419 19.9347ZM7.58054 2.41589C7.58054 1.634 8.21601 1 8.99529 1C9.77579 1 10.41 1.63636 10.41 2.41589V2.65605C10.41 2.88419 10.5645 3.08339 10.7854 3.14026C13.8736 3.93517 16.1543 6.73981 16.1543 10.0765V13.6892C16.1543 14.6466 16.2349 16.1844 16.335 17.1357L16.4933 18.6397C16.5115 18.8119 16.4011 18.9347 16.2276 18.9347H1.76301C1.59031 18.9347 1.47917 18.8114 1.49725 18.6397L1.65556 17.1357C1.75534 16.1878 1.83629 14.6474 1.83629 13.6892V10.0765C1.83629 6.73699 4.11743 3.93447 7.20511 3.14014C7.42608 3.08329 7.58054 2.88407 7.58054 2.65591V2.41589Z" fill="#444648"/>
</svg>
