<svg width="13" height="18" viewBox="0 0 13 18" fill="none" xmlns="http://www.w3.org/2000/svg">
<path d="M6.04329 0C3.66085 0 1.72336 1.93749 1.72336 4.31993C1.72336 6.70238 3.66085 8.63987 6.04329 8.63987C8.42574 8.63987 10.3632 6.70238 10.3632 4.31993C10.3632 1.93749 8.42574 0 6.04329 0ZM6.04329 6.4799C4.85207 6.4799 3.88333 5.51116 3.88333 4.31993C3.88333 3.12871 4.85207 2.15997 6.04329 2.15997C7.23452 2.15997 8.20326 3.12871 8.20326 4.31993C8.20326 5.51116 7.23452 6.4799 6.04329 6.4799Z" fill="#424446"/>
<path d="M11.7721 8.52921C11.3498 8.10693 10.6673 8.10693 10.245 8.52921C7.92951 10.8447 4.16037 10.8447 1.8438 8.52921C1.42153 8.10693 0.738978 8.10693 0.316705 8.52921C-0.105568 8.95148 -0.105568 9.63403 0.316705 10.0574C1.6602 11.4009 3.36334 12.1666 5.11939 12.3664L2.04036 15.4454C1.61808 15.8677 1.61808 16.5503 2.04036 16.9725C2.46263 17.3948 3.14518 17.3948 3.56745 16.9725L6.04386 14.4961L8.52026 16.9725C8.73085 17.1831 9.00733 17.289 9.28381 17.289C9.56028 17.289 9.83676 17.1831 10.0474 16.9725C10.4696 16.5503 10.4696 15.8677 10.0474 15.4454L6.96832 12.3664C8.72437 12.1666 10.4275 11.4009 11.771 10.0574C12.1933 9.63511 12.1933 8.95148 11.7721 8.52921Z" fill="#424446"/>
</svg>
