<svg width="99" height="30" viewBox="0 0 99 30" fill="none" xmlns="http://www.w3.org/2000/svg">
<path d="M3.88128 8.04001C3.88128 5.79069 5.13227 4.56377 6.72012 4.56377C8.30785 4.56377 9.55877 5.79069 9.55877 8.04001C9.55877 10.2894 8.30785 11.5283 6.72012 11.5283C5.13227 11.5283 3.88128 10.2894 3.88128 8.04001ZM10.8098 8.04001C10.8098 5.40577 9.23407 3.5293 6.72012 3.5293C4.20607 3.5293 2.63031 5.40577 2.63031 8.04001C2.63031 10.6743 4.20607 12.5628 6.72012 12.5628C9.23407 12.5628 10.8098 10.6743 10.8098 8.04001Z" fill="#EC5EA2"/>
<path d="M13.3867 5.93444H12.2921V12.4058H13.3867V8.89353C13.3867 7.49815 14.0362 6.77644 15.0948 6.77644C16.3457 6.77644 16.5141 7.64248 16.5141 8.64093V12.4058H17.6087V8.3161C17.6087 6.83658 17.0434 5.82617 15.4796 5.82617C14.385 5.82617 13.7595 6.29529 13.3867 6.90876V5.93444Z" fill="#EC5EA2"/>
<path d="M24.9597 9.53097C25.0921 7.47408 23.9252 5.82617 21.9406 5.82617C20.1723 5.82617 18.801 7.12527 18.801 9.18219C18.801 11.0948 19.9317 12.5622 21.9766 12.5622C23.5524 12.5622 24.5869 11.636 24.8755 10.5294H23.7449C23.4682 11.1669 22.9389 11.6 21.9766 11.6C21.0263 11.6 20.0159 10.9263 19.9798 9.53097H24.9597ZM21.9406 6.76442C23.1073 6.76442 23.7689 7.67853 23.805 8.59278H19.9919C20.0881 7.29368 20.9783 6.76442 21.9406 6.76442Z" fill="#EC5EA2"/>
<path d="M32.6673 9.62787C32.3906 10.7464 31.5486 11.5283 30.1532 11.5283C28.5295 11.5283 27.3747 10.2414 27.3747 8.02804C27.3747 5.76663 28.5775 4.56377 30.1172 4.56377C31.5005 4.56377 32.3666 5.36968 32.6192 6.46429H33.81C33.4251 4.59984 31.9816 3.5293 30.1773 3.5293C27.7235 3.5293 26.1237 5.3336 26.1237 8.02804C26.1237 10.6743 27.5792 12.5628 30.0811 12.5628C31.9696 12.5628 33.4732 11.5524 33.8581 9.62787H32.6673Z" fill="#EC5EA2"/>
<path d="M36.1988 3.68555H35.1042V12.4063H36.1988V3.68555Z" fill="#EC5EA2"/>
<path d="M37.9351 5.9349V12.4063H39.0297V5.9349H37.9351ZM37.9351 3.68555V5.0087H39.0297V3.68555H37.9351Z" fill="#EC5EA2"/>
<path d="M43.4484 5.82617C41.5359 5.82617 40.321 7.25759 40.321 9.18219C40.321 11.1549 41.4757 12.5622 43.3401 12.5622C44.8558 12.5622 45.9985 11.5158 46.2271 10.3009H45.0964C44.94 10.9745 44.3024 11.6 43.3763 11.6C42.4139 11.6 41.5118 10.8061 41.5118 9.17009C41.5118 7.54631 42.4139 6.78847 43.3763 6.78847C44.2303 6.78847 44.8918 7.32975 45.0482 8.09954H46.1548C45.9985 6.99296 45.0363 5.82617 43.4484 5.82617Z" fill="#EC5EA2"/>
<path d="M47.4617 3.68555V12.4063H48.5564V10.2412L49.314 9.42316L51.5154 12.4063H52.8505L50.0479 8.61732L52.5137 5.9349H51.1665L48.5564 8.84585V3.68555H47.4617Z" fill="#EC5EA2"/>
<path d="M32.1023 21.9482C32.1023 24.2577 30.719 24.5824 29.2153 24.5824H28.3613V19.3259H29.2153C30.719 19.3259 32.1023 19.6387 32.1023 21.9482ZM26.3044 17.5938V26.3145H29.1793C32.03 26.3145 34.2794 25.2681 34.2794 21.9482C34.2794 18.6402 32.03 17.5938 29.1793 17.5938H26.3044Z" fill="#EC5EA2"/>
<path d="M35.2416 19.8431V26.3145H37.2384V19.8431H35.2416ZM35.2416 17.5938V19.1816H37.2264V17.5938H35.2416Z" fill="#EC5EA2"/>
<path d="M44.4939 21.7428C44.2413 20.2632 42.9062 19.6738 41.4266 19.6738C39.8268 19.6738 38.4676 20.3835 38.4676 21.6706C38.4676 22.8253 39.3215 23.4508 40.5726 23.6554L41.7273 23.8477C42.4852 23.9801 42.7378 24.1606 42.7378 24.4492C42.7378 24.8341 42.2445 25.0266 41.5349 25.0266C40.8493 25.0266 40.356 24.8341 40.1757 24.2086H38.3352C38.5637 25.7242 39.8027 26.4701 41.5108 26.4701C43.3031 26.4701 44.6382 25.7363 44.6382 24.2808C44.6382 23.1381 43.8925 22.681 42.3408 22.3924L41.1379 22.1758C40.5726 22.0675 40.3441 21.8991 40.3441 21.5984C40.3441 21.2737 40.6929 21.1172 41.3784 21.1172C42.004 21.1172 42.5092 21.2616 42.6415 21.7428H44.4939Z" fill="#EC5EA2"/>
<path d="M46.0326 19.8425H45.0101V21.2498H46.0326V24.4975C46.0326 26.0012 46.5739 26.3139 48.1737 26.3139H49.4367V24.8825H48.8712C48.2097 24.8825 48.0173 24.7622 48.0173 24.1487V21.2498H49.4367V19.8425H48.0173V18.0742H46.0326V19.8425Z" fill="#EC5EA2"/>
<path d="M54.4704 19.807C54.4224 19.7949 54.3742 19.7949 54.3141 19.7949H54.1698C53.2435 19.8311 52.7023 20.3001 52.4015 21.07V19.8431H50.489V26.3145H52.4736V23.0668C52.4736 22.0564 52.9669 21.7075 53.9291 21.7075C54.1096 21.7075 54.2419 21.7075 54.4704 21.7437V19.807Z" fill="#EC5EA2"/>
<path d="M55.3168 19.8431V26.3145H57.3136V19.8431H55.3168ZM55.3168 17.5938V19.1816H57.3016V17.5938H55.3168Z" fill="#EC5EA2"/>
<path d="M62.0551 21.2385C62.849 21.2385 63.4985 21.8759 63.4985 23.0788C63.4985 24.2817 62.849 24.9313 62.0551 24.9313C61.2732 24.9313 60.6237 24.414 60.6237 23.0788C60.6237 21.7437 61.2732 21.2385 62.0551 21.2385ZM60.7198 17.5938H58.7352V26.3145H60.7198V25.4485C61.1408 26.1581 62.0069 26.471 62.7046 26.471C64.3765 26.471 65.5554 25.1959 65.5554 23.0788C65.5554 20.9618 64.3765 19.6988 62.7046 19.6988C62.0069 19.6988 61.1408 20.0115 60.7198 20.7212V17.5938Z" fill="#EC5EA2"/>
<path d="M70.564 26.3152H72.5488V19.8438H70.564V23.2598C70.564 24.4627 70.2513 24.9319 69.3973 24.9319C68.435 24.9319 68.4109 24.1741 68.4109 23.2479V19.8438H66.4261V23.7411C66.4261 25.4972 66.9435 26.4716 68.6635 26.4716C69.6619 26.4716 70.1671 26.0506 70.564 25.413V26.3152Z" fill="#EC5EA2"/>
<path d="M74.2952 19.8425H73.2727V21.2498H74.2952V24.4975C74.2952 26.0012 74.8365 26.3139 76.4363 26.3139H77.6993V24.8825H77.134C76.4724 24.8825 76.2799 24.7622 76.2799 24.1487V21.2498H77.6993V19.8425H76.2799V18.0742H74.2952V19.8425Z" fill="#EC5EA2"/>
<path d="M78.7516 19.8431V26.3145H80.7484V19.8431H78.7516ZM78.7516 17.5938V19.1816H80.7364V17.5938H78.7516Z" fill="#EC5EA2"/>
<path d="M85.2132 21.1901C85.9951 21.1901 86.6205 21.6712 86.6205 23.0545C86.6205 24.4137 86.019 24.931 85.2132 24.931C84.4072 24.931 83.8058 24.4137 83.8058 23.0545C83.8058 21.6712 84.4313 21.1901 85.2132 21.1901ZM85.2132 19.6504C83.4209 19.6504 81.785 20.709 81.785 23.0545C81.785 25.4002 83.4209 26.4707 85.2132 26.4707C87.0054 26.4707 88.6414 25.4002 88.6414 23.0545C88.6414 20.709 87.0054 19.6504 85.2132 19.6504Z" fill="#EC5EA2"/>
<path d="M91.6608 19.8435H89.6761V26.315H91.6608V22.9951C91.6608 21.7922 92.0097 21.2389 92.8637 21.2389C93.826 21.2389 93.862 21.9967 93.862 22.9228V26.315H95.8468V22.4297C95.8468 20.6736 95.3296 19.6992 93.6697 19.6992C92.6471 19.6992 91.9495 20.2164 91.6608 20.6975V19.8435Z" fill="#EC5EA2"/>
<path fill-rule="evenodd" clip-rule="evenodd" d="M96.5546 9.21075H57.4614V8.45898H96.5546V9.21075Z" fill="#EC5EA2"/>
<path fill-rule="evenodd" clip-rule="evenodd" d="M18.6852 19.1453L21.0774 21.5375C21.2242 21.6843 21.2242 21.9223 21.0774 22.069L18.6852 24.4612C18.5383 24.6081 18.3004 24.6081 18.1536 24.4612C18.0068 24.3145 18.0068 24.0765 18.1536 23.9297L19.9041 22.1792H2.01678V21.4274H19.9041L18.1536 19.6768C18.0068 19.5301 18.0068 19.2921 18.1536 19.1453C18.3004 18.9984 18.5383 18.9984 18.6852 19.1453Z" fill="#EC5EA2"/>
</svg>
