<svg width="15" height="18" viewBox="0 0 15 18" fill="none" xmlns="http://www.w3.org/2000/svg">
<path d="M7.25472 0C2.51784 0.00072 0 3.03552 0 6.34464C0 7.87896 0.85752 9.79344 2.23056 10.4004C2.62224 10.5768 2.5704 10.3615 2.90736 9.07272C2.934 8.96544 2.92032 8.87256 2.83392 8.77248C0.8712 6.50232 2.45088 1.83528 6.97464 1.83528C13.5216 1.83528 12.2983 10.8943 8.11368 10.8943C7.03512 10.8943 6.2316 10.0476 6.48576 9C6.79392 7.75224 7.39728 6.41088 7.39728 5.5116C7.39728 3.24504 4.02048 3.58128 4.02048 6.5844C4.02048 7.51248 4.3488 8.13888 4.3488 8.13888C4.3488 8.13888 3.26232 12.528 3.06072 13.3481C2.71944 14.7362 3.1068 16.9834 3.14064 17.177C3.16152 17.2836 3.28104 17.3174 3.348 17.2296C3.45528 17.0892 4.76856 15.2158 5.13648 13.8614C5.2704 13.3682 5.81976 11.3666 5.81976 11.3666C6.18192 12.0204 7.22592 12.5676 8.33832 12.5676C11.6474 12.5676 14.0393 9.6588 14.0393 6.04944C14.0278 2.58912 11.0664 0 7.25472 0V0Z" fill="#424446"/>
</svg>
