<svg width="100" height="100" viewBox="0 0 100 100" fill="none" xmlns="http://www.w3.org/2000/svg">
<circle cx="50" cy="50" r="49" stroke="#DADFE4" stroke-width="2"/>
<path d="M50.9853 56.032V59H48.0733V56.032H50.9853ZM50.0613 38.672C51.8906 38.672 53.3559 39.1387 54.4573 40.072C55.5773 41.0053 56.1373 42.228 56.1373 43.74C56.1373 44.748 55.9413 45.5973 55.5493 46.288C55.1759 46.96 54.3826 47.8 53.1693 48.808C52.0866 49.6853 51.3866 50.46 51.0693 51.132C50.7706 51.804 50.6213 52.8867 50.6213 54.38H48.4373V53.54C48.4373 52.084 48.6146 50.9733 48.9693 50.208C49.3426 49.4427 50.1079 48.556 51.2653 47.548C52.1986 46.7267 52.8053 46.0733 53.0853 45.588C53.3653 45.1027 53.5053 44.5053 53.5053 43.796C53.5053 42.9187 53.1973 42.2187 52.5813 41.696C51.9653 41.1733 51.1253 40.912 50.0613 40.912C47.6719 40.912 46.4119 42.116 46.2812 44.524H43.7052C43.7986 42.62 44.3959 41.1733 45.4973 40.184C46.5986 39.176 48.1199 38.672 50.0613 38.672Z" fill="#444648"/>
</svg>
