<svg width="16" height="18" viewBox="0 0 16 18" fill="none" xmlns="http://www.w3.org/2000/svg">
<path d="M15.1119 4.32668C14.1282 4.32668 13.2206 3.99947 12.4918 3.44748C11.6559 2.81471 11.0553 1.8865 10.8432 0.81666C10.7907 0.552327 10.7624 0.279544 10.7597 0H7.94977V7.70959L7.9464 11.9325C7.9464 13.0615 7.2142 14.0188 6.19922 14.3554C5.90465 14.4531 5.58652 14.4994 5.25527 14.4812C4.83244 14.4579 4.43621 14.3297 4.09182 14.1229C3.35895 13.6828 2.86206 12.8844 2.84859 11.971C2.82739 10.5436 3.97669 9.37976 5.39733 9.37976C5.67776 9.37976 5.94707 9.42573 6.19922 9.50922V7.402V6.64449C5.93327 6.60494 5.66261 6.58432 5.38891 6.58432C3.83395 6.58432 2.37965 7.23332 1.34009 8.40254C0.554362 9.28613 0.0830601 10.4134 0.0103449 11.5955C-0.0849255 13.1484 0.480974 14.6245 1.57843 15.7136C1.73969 15.8735 1.90902 16.0219 2.08609 16.1588C3.02702 16.8859 4.17733 17.28 5.38891 17.28C5.66261 17.28 5.93327 17.2597 6.19922 17.2202C7.33102 17.0518 8.37529 16.5316 9.19939 15.7136C10.212 14.7087 10.7715 13.3745 10.7776 11.9545L10.7631 5.64834C11.2462 6.02253 11.7744 6.33216 12.3413 6.57249C13.223 6.946 14.1578 7.1353 15.12 7.13496V5.08621V4.326C15.1206 4.32668 15.1126 4.32668 15.1119 4.32668Z" fill="#424446"/>
</svg>
