<svg width="18" height="23" viewBox="0 0 18 23" fill="none" xmlns="http://www.w3.org/2000/svg">
<path fill-rule="evenodd" clip-rule="evenodd" d="M8.99541 0C7.71062 0 6.65681 1.00716 6.58461 2.27674C3.25553 3.3046 0.836416 6.40509 0.836416 10.0765V13.6892C0.836416 14.6124 0.757298 16.1179 0.661178 17.031L0.502862 18.535C0.422411 19.2993 0.998881 19.9347 1.76313 19.9347H5.52702C5.74093 21.6507 7.20471 22.9786 8.97862 22.9786C10.7525 22.9786 12.2163 21.6507 12.4302 19.9347H16.2277C16.9955 19.9347 17.5682 19.297 17.488 18.535L17.3296 17.031C17.2332 16.1146 17.1544 14.6117 17.1544 13.6892V10.0765C17.1544 6.40791 14.7358 3.30548 11.4062 2.27694C11.3341 1.01097 10.2831 0 8.99541 0ZM11.4191 19.9347H6.53811C6.7436 21.0963 7.75808 21.9786 8.97862 21.9786C10.1992 21.9786 11.2136 21.0963 11.4191 19.9347ZM7.58066 2.41589C7.58066 1.634 8.21614 1 8.99541 1C9.77592 1 10.4102 1.63636 10.4102 2.41589V2.65605C10.4102 2.88419 10.5646 3.08339 10.7855 3.14026C13.8737 3.93517 16.1544 6.73981 16.1544 10.0765V13.6892C16.1544 14.6466 16.235 16.1844 16.3351 17.1357L16.4935 18.6397C16.5116 18.8119 16.4012 18.9347 16.2277 18.9347H1.76313C1.59043 18.9347 1.47929 18.8114 1.49737 18.6397L1.65568 17.1357C1.75547 16.1878 1.83642 14.6474 1.83642 13.6892V10.0765C1.83642 6.73699 4.11755 3.93447 7.20524 3.14014C7.4262 3.08329 7.58066 2.88407 7.58066 2.65591V2.41589Z" fill="#131314"/>
</svg>
