<svg width="20" height="21" viewBox="0 0 20 21" fill="none" xmlns="http://www.w3.org/2000/svg">
<path fill-rule="evenodd" clip-rule="evenodd" d="M5.23432 5C5.31916 4.53911 5.43473 4.08049 5.59217 3.64315C5.89397 2.80478 6.35991 2.01269 7.08559 1.43035C7.81809 0.842531 8.77616 0.5 10.0001 0.5C11.224 0.5 12.1821 0.842531 12.9146 1.43035C13.6403 2.01269 14.1062 2.80477 14.408 3.64314C14.5655 4.08048 14.681 4.53911 14.7659 5H17.1174C17.6217 5 18.0471 5.37554 18.1097 5.87597L19.8597 19.876C19.9343 20.4728 19.4689 21 18.8674 21H1.13296C0.531461 21 0.0660753 20.4728 0.140682 19.876L1.89068 5.87597C1.95324 5.37554 2.37864 5 2.88296 5H5.23432ZM6.2524 5C6.32383 4.65097 6.41547 4.3085 6.53306 3.98185C6.79374 3.25772 7.17153 2.64356 7.71146 2.21027C8.24457 1.78247 8.97399 1.5 10.0001 1.5C11.0262 1.5 11.7556 1.78247 12.2887 2.21028C12.8286 2.64356 13.2064 3.25773 13.4671 3.98186C13.5847 4.3085 13.6764 4.65097 13.7478 5H6.2524ZM5.09389 6C5.0001 6.92422 5.00011 7.80071 5.00012 8.46932L5.00012 8.49999C5.00012 8.77613 5.22397 8.99999 5.50011 9C5.77626 9 6.00012 8.77615 6.00012 8.50001C6.00014 7.78263 6.00174 6.89844 6.09917 6H13.901C13.9985 6.89844 14.0001 7.78263 14.0001 8.5C14.0001 8.77614 14.2239 9 14.5001 9C14.7762 9 15.0001 8.77614 15.0001 8.5V8.46962C15.0001 7.80097 15.0001 6.92435 14.9063 6H17.1174L18.8674 20H1.13296L2.88296 6H5.09389Z" fill="#131314"/>
</svg>
