<svg width="20" height="20" viewBox="0 0 20 20" fill="none" xmlns="http://www.w3.org/2000/svg">
<path d="M11.1906 8.80968C11.3859 9.0049 11.7025 9.00483 11.8977 8.80953C12.0929 8.61423 12.0929 8.29765 11.8976 8.10242L11.1906 8.80968ZM5.36829 8.45605L5.01481 8.10242L5.0148 8.10244L5.36829 8.45605ZM2.27939 11.5439L1.9259 11.1903L1.92584 11.1904L2.27939 11.5439ZM1.00014 14.6323H0.500137H1.00014ZM8.45619 17.7207L8.80974 18.0743L8.45619 17.7207ZM10.3537 16.5303C10.549 16.3351 10.549 16.0185 10.3537 15.8232C10.1584 15.628 9.84185 15.628 9.64658 15.8232L10.3537 16.5303ZM8.80967 11.1903C8.61437 10.9951 8.29778 10.9952 8.10256 11.1905C7.90734 11.3858 7.90741 11.7024 8.10271 11.8976L8.80967 11.1903ZM14.632 11.5439L14.9855 11.8976L14.9855 11.8976L14.632 11.5439ZM17.7209 8.45605L18.0744 8.80966L18.0744 8.8096L17.7209 8.45605ZM19.0001 5.36765H19.5001H19.0001ZM14.6325 1V0.5V1ZM11.5441 2.27926L11.1905 1.9257V1.9257L11.5441 2.27926ZM9.64658 3.46965C9.45132 3.66491 9.45132 3.9815 9.64658 4.17676C9.84185 4.37202 10.1584 4.37202 10.3537 4.17676L9.64658 3.46965ZM11.8976 8.10242C10.9847 7.18996 9.74687 6.67738 8.45619 6.67738V7.67738C9.48173 7.67738 10.4653 8.08466 11.1906 8.80968L11.8976 8.10242ZM8.45619 6.67738C7.1655 6.67738 5.92765 7.18996 5.01481 8.10242L5.72177 8.80968C6.44709 8.08466 7.43065 7.67738 8.45619 7.67738V6.67738ZM5.0148 8.10244L1.9259 11.1903L2.63289 11.8976L5.72179 8.80966L5.0148 8.10244ZM1.92584 11.1904C1.01298 12.1033 0.500137 13.3414 0.500137 14.6323H1.50014C1.50014 13.6066 1.90762 12.6228 2.63295 11.8975L1.92584 11.1904ZM0.500137 14.6323C0.500137 15.9233 1.01298 17.1614 1.92584 18.0743L2.63295 17.3672C1.90762 16.6419 1.50014 15.6581 1.50014 14.6323H0.500137ZM1.92584 18.0743C2.8387 18.9872 4.07681 19.5 5.36779 19.5V18.5C4.34203 18.5 3.35827 18.0925 2.63295 17.3672L1.92584 18.0743ZM5.36779 19.5C6.65877 19.5 7.89688 18.9872 8.80974 18.0743L8.10264 17.3672C7.37731 18.0925 6.39356 18.5 5.36779 18.5V19.5ZM8.80974 18.0743L10.3537 16.5303L9.64658 15.8232L8.10264 17.3672L8.80974 18.0743ZM8.10271 11.8976C9.01555 12.81 10.2534 13.3226 11.5441 13.3226V12.3226C10.5185 12.3226 9.53499 11.9153 8.80967 11.1903L8.10271 11.8976ZM11.5441 13.3226C12.8348 13.3226 14.0726 12.81 14.9855 11.8976L14.2785 11.1903C13.5532 11.9153 12.5696 12.3226 11.5441 12.3226V13.3226ZM14.9855 11.8976L18.0744 8.80966L17.3674 8.10244L14.2785 11.1903L14.9855 11.8976ZM18.0744 8.8096C18.9873 7.89674 19.5001 6.65864 19.5001 5.36765H18.5001C18.5001 6.39342 18.0927 7.37717 17.3673 8.1025L18.0744 8.8096ZM19.5001 5.36765C19.5001 4.07667 18.9873 2.83856 18.0744 1.9257L17.3673 2.63281C18.0927 3.35813 18.5001 4.34189 18.5001 5.36765H19.5001ZM18.0744 1.9257C17.1616 1.01284 15.9235 0.5 14.6325 0.5V1.5C15.6582 1.5 16.642 1.90748 17.3673 2.63281L18.0744 1.9257ZM14.6325 0.5C13.3415 0.5 12.1034 1.01284 11.1905 1.9257L11.8976 2.63281C12.623 1.90748 13.6067 1.5 14.6325 1.5V0.5ZM11.1905 1.9257L9.64658 3.46965L10.3537 4.17676L11.8976 2.63281L11.1905 1.9257Z" fill="#444648"/>
</svg>
