<svg width="14" height="14" viewBox="0 0 14 14" fill="none" xmlns="http://www.w3.org/2000/svg">
<path d="M13 1H13.5C13.5 0.723858 13.2761 0.5 13 0.5V1ZM0.646447 12.6464C0.451184 12.8417 0.451184 13.1583 0.646447 13.3536C0.841709 13.5488 1.15829 13.5488 1.35355 13.3536L0.646447 12.6464ZM3 0.5C2.72386 0.5 2.5 0.723858 2.5 1C2.5 1.27614 2.72386 1.5 3 1.5V0.5ZM12.5 11C12.5 11.2761 12.7239 11.5 13 11.5C13.2761 11.5 13.5 11.2761 13.5 11H12.5ZM12.6464 0.646447L0.646447 12.6464L1.35355 13.3536L13.3536 1.35355L12.6464 0.646447ZM3 1.5H13V0.5H3V1.5ZM12.5 1V11H13.5V1H12.5Z" fill="white"/>
</svg>
