<svg width="18" height="11" viewBox="0 0 18 11" fill="none" xmlns="http://www.w3.org/2000/svg">
<path d="M14.3388 5.78016C14.0594 5.42736 14.1394 5.2704 14.3388 4.95504C14.3424 4.95144 16.6486 1.76472 16.8862 0.684L16.8876 0.68328C17.0057 0.28944 16.8876 0 16.3166 0H14.4274C13.9464 0 13.7246 0.2484 13.6058 0.52632C13.6058 0.52632 12.6439 2.82888 11.2831 4.32144C10.8439 4.75272 10.6409 4.89096 10.4011 4.89096C10.283 4.89096 10.0994 4.75272 10.0994 4.35888V0.68328C10.0994 0.21096 9.9648 0 9.56664 0H6.59592C6.29424 0 6.11496 0.22032 6.11496 0.42552C6.11496 0.87336 6.79536 0.97632 6.86592 2.23632V4.97016C6.86592 5.5692 6.7572 5.67936 6.516 5.67936C5.87376 5.67936 4.31496 3.36744 3.3912 0.72144C3.20472 0.20808 3.02256 0.000719948 2.538 0.000719948H0.648C0.10872 0.000719948 0 0.24912 0 0.52704C0 1.01808 0.64224 3.4596 2.98656 6.6852C4.54896 8.88696 6.74928 10.08 8.75088 10.08C9.954 10.08 10.1009 9.81504 10.1009 9.35928C10.1009 7.25544 9.99216 7.05672 10.5948 7.05672C10.8742 7.05672 11.3551 7.19496 12.4783 8.25696C13.7621 9.51624 13.973 10.08 14.6916 10.08H16.5809C17.1194 10.08 17.3923 9.81504 17.2354 9.29232C16.8761 8.19288 14.4482 5.93136 14.3388 5.78016Z" fill="#424446"/>
</svg>
