<svg width="11" height="11" viewBox="0 0 11 11" fill="none" xmlns="http://www.w3.org/2000/svg">
<path fill-rule="evenodd" clip-rule="evenodd" d="M0.722238 0.123916C0.557016 -0.0413055 0.289138 -0.0413055 0.123916 0.123916C-0.0413055 0.289138 -0.0413055 0.557016 0.123916 0.722238L4.90168 5.5L0.123916 10.2778C-0.0413055 10.443 -0.0413055 10.7109 0.123916 10.8761C0.289138 11.0413 0.557016 11.0413 0.722238 10.8761L5.5 6.09832L10.2778 10.8761C10.443 11.0413 10.7109 11.0413 10.8761 10.8761C11.0413 10.7109 11.0413 10.443 10.8761 10.2778L6.09832 5.5L10.8761 0.722238C11.0413 0.557016 11.0413 0.289138 10.8761 0.123916C10.7109 -0.0413055 10.443 -0.0413055 10.2778 0.123916L5.5 4.90168L0.722238 0.123916Z" fill="white"/>
</svg>
