<svg width="18" height="18" viewBox="0 0 18 18" fill="none" xmlns="http://www.w3.org/2000/svg">
<path fill-rule="evenodd" clip-rule="evenodd" d="M8.54479 0C4.98341 0.000338525 2.51568 0.012187 1.24898 1.24916C0.0120718 2.51558 0.000220836 5.0992 0.000220836 8.54472C3.82608 8.42927 5.57562 8.33347 6.971 6.9709C8.3335 5.57552 8.42933 3.82601 8.54479 0ZM1.24876 16.0311C0.0118509 14.7647 0 12.1811 0 8.7356C3.82586 8.85105 5.5754 8.94685 6.97078 10.3094C8.33329 11.7048 8.42912 13.4543 8.54457 17.28C4.9832 17.28 2.51546 17.2685 1.24876 16.0311ZM8.73555 17.28C8.85101 13.4543 8.94684 11.7048 10.3094 10.3094C11.7047 8.94685 13.4543 8.85105 17.2801 8.7356C17.2798 12.1811 17.2679 14.7647 16.031 16.0311C14.7643 17.2685 12.297 17.28 8.73555 17.28ZM8.73555 0C8.85101 3.82601 8.94684 5.57552 10.3094 6.9709C11.7047 8.33347 13.4543 8.42927 17.2801 8.54472C17.2798 5.0992 17.2679 2.51558 16.031 1.24916C14.7643 0.012187 12.297 0.000338525 8.73555 0Z" fill="#424446"/>
</svg>
