<svg width="18" height="13" viewBox="0 0 18 13" fill="none" xmlns="http://www.w3.org/2000/svg">
<path d="M16.924 1.91525C16.7248 1.16636 16.1411 0.576042 15.401 0.374381C14.0488 0 8.63983 0 8.63983 0C8.63983 0 3.23102 0 1.87879 0.36011C1.1529 0.561638 0.555027 1.16649 0.355824 1.91525C0 3.28314 0 6.12 0 6.12C0 6.12 0 8.97114 0.355824 10.3248C0.555159 11.0735 1.13866 11.664 1.87892 11.8656C3.24526 12.24 8.63996 12.24 8.63996 12.24C8.63996 12.24 14.0488 12.24 15.401 11.8799C16.1413 11.6784 16.7248 11.0879 16.9241 10.3392C17.2799 8.97114 17.2799 6.13441 17.2799 6.13441C17.2799 6.13441 17.2942 3.28314 16.924 1.91525Z" fill="#424446"/>
<path d="M6.48422 8.65267L11.5242 6.13267L6.48422 3.61267V8.65267Z" fill="white"/>
</svg>
